<?xml version="1.0" encoding="UTF-8"?>
<!DOCTYPE svg PUBLIC "-//W3C//DTD SVG 1.1//EN" "http://www.w3.org/Graphics/SVG/1.1/DTD/svg11.dtd">
<!-- Creator: CorelDRAW 2020 (64-Bit) -->
<svg xmlns="http://www.w3.org/2000/svg" xml:space="preserve" width="4.24286in" height="11.9882in" version="1.1" style="shape-rendering:geometricPrecision; text-rendering:geometricPrecision; image-rendering:optimizeQuality; fill-rule:evenodd; clip-rule:evenodd"
viewBox="0 0 680.51 1922.78"
 xmlns:xlink="http://www.w3.org/1999/xlink"
 xmlns:xodm="http://www.corel.com/coreldraw/odm/2003">
 <defs>
  <style type="text/css">
   <![CDATA[
    .fil0 {fill:#F7ADAF}
    .fil1 {fill:#00A859}
   ]]>
  </style>
 </defs>
 <g id="Layer_x0020_1">
  <metadata id="CorelCorpID_0Corel-Layer"/>
  <path class="fil0" d="M289.55 0l187.51 1.73 11.2 0.32 26.97 91.94 -2.84 3.94 -3.94 3 -22.24 19.71 -1.73 3.31 -0.63 3.63 0.31 7.57 4.42 21.13 6.15 20.66 36.27 116.55 35.33 114.81 8.04 26.34 8.99 26.18 6.94 11.35 9.78 9.15 9.46 4.89 9.94 3.94 32.49 12.62 -0.16 2.05 -0.94 2.36 -7.1 18.61 -5.84 18.92 -26.18 84.06 -191.77 0 -21.29 -26.49 -22.39 -25.39 -23.18 -26.49 -23.66 -25.87 21.76 -16.72 21.29 -17.19 -45.26 0.16 -45.26 0.79 -10.41 1.26 24.13 13.09 2.52 2.68 -0.16 3.79 -20.03 68.92 -14.03 47.47 -148.09 0 -56.78 -69.07 -29.49 -35.33 -1.73 -2.68 -0.79 -2.84 24.6 -17.66 19.4 -15.3 18.61 -16.09 8.04 -10.41 6.46 -11.35 8.68 -20.5 7.41 -21.13 74.75 -221.27 4.1 -11.35 3.63 -11.67 3 -13.88 0.63 -6.94 -0.48 -6.94 -2.52 -7.1 -4.42 -6.15 -11.04 -10.41 -6.78 -5.68 -5.99 -6.47 0.47 -3.47 0.95 -3.47 22.55 -73.02 5.68 -18.61 84.69 0zm34.22 281.04l-3 6.94 -2.05 7.41 -9.46 29.49 -10.09 29.18 5.99 0.79 6.15 0.16 39.9 -0.32 -12.14 -35.33 -13.56 -37.53 -1.73 -0.79zm17.03 433.07l47.63 -70.02 222.37 0 69.71 126.8 -67.34 7.57 -15.46 4.42 -14.82 6.78 -13.88 8.99 -12.93 10.57 -84.06 71.76 95.25 212.12 17.03 30.91 10.41 13.72 12.46 11.36 10.25 5.05 10.72 3.15 22.08 4.73 29.34 6.78 -64.82 109.61 -238.93 0 -41.48 -61.67 -33.59 61.67 -236.24 0 -61.67 -101.88 53.46 -22.71 6.15 -4.26 5.04 -5.84 3.16 -7.41 0.63 -8.2 -0.16 -348.54 -0.63 -8.52 -1.42 -3.78 -3.16 -2.05 -20.19 -5.52 -20.66 -4.26 -25.08 -5.36 64.5 -105.98 235.3 0 41.01 70.02zm-52.68 317.94l0.32 111.66 0.63 6.63 1.42 2.36 2.84 1.11 19.4 3 19.55 1.73 35.96 -3.31 -12.62 -27.6 -13.56 -27.13 -39.74 -79.96 -14.2 11.51zm15.3 -269.52l-6.94 3 -5.04 5.83 -3 7.57 -0.32 8.36 0.16 22.08 60.72 -51.1 -45.58 4.26zm-13.88 531.48l187.51 1.73 11.2 0.32 26.97 91.94 -2.84 3.94 -3.94 2.99 -22.24 19.72 -1.73 3.31 -0.63 3.63 0.31 7.57 4.42 21.13 6.15 20.66 36.27 116.55 35.33 114.81 8.04 26.34 8.99 26.18 6.94 11.35 9.78 9.15 9.46 4.89 9.94 3.94 32.49 12.62 -0.16 2.05 -0.94 2.21 -7.1 18.77 -5.84 18.93 -26.18 84.06 -191.77 0 -21.29 -26.49 -22.39 -25.39 -23.18 -26.5 -23.66 -25.86 21.76 -16.72 21.29 -17.19 -45.26 0.16 -45.26 0.79 -10.41 1.26 24.13 13.09 2.52 2.68 -0.16 3.78 -20.03 68.92 -14.03 47.47 -148.09 0 -56.78 -69.08 -29.49 -35.33 -1.73 -2.68 -0.79 -2.84 24.6 -17.66 19.4 -15.3 18.61 -16.09 8.04 -10.41 6.46 -11.35 8.68 -20.5 7.41 -21.13 74.75 -221.26 4.1 -11.35 3.63 -11.67 3 -13.88 0.63 -6.94 -0.48 -6.94 -2.52 -7.1 -4.42 -6.15 -11.04 -10.41 -6.78 -5.68 -5.99 -6.47 0.47 -3.47 0.95 -3.47 22.55 -73.18 5.68 -18.45 84.69 0zm34.22 281.03l-3 6.94 -2.05 7.41 -9.46 29.49 -10.09 29.17 5.99 0.79 6.15 0.16 39.9 -0.32 -12.14 -35.32 -13.56 -37.53 -1.73 -0.79z"/>
  <path class="fil1" d="M327.4 168.43l-27.44 79.64 -46.68 138.63 -0.16 1.11 0.95 0.32 2.68 0 138.47 1.26 -8.99 -31.23 -32.33 -106.3 -25.23 -82.01 -0.47 -1.11 -0.79 -0.31zm45.26 1161.99l85.79 0.63 2.68 0 1.42 1.58 12.3 43.37 -12.62 12.93 -5.52 7.1 -4.57 7.73 -1.73 5.36 -0.63 5.68 -0.16 11.2 0.47 12.78 2.37 12.62 18.45 59.77 15.77 50.78 8.04 27.76 28.23 90.53 22.24 70.49 5.2 14.04 6.63 13.72 8.36 12.46 10.88 10.41 15.77 9.31 16.56 8.04 -11.51 34.69 -11.99 34.54 -149.03 -0.16 -11.2 -14.67 -12.46 -13.72 -28.54 -32.65 -1.58 -3 1.11 -2.68 17.03 -13.88 7.1 -8.36 5.52 -9.46 2.84 -8.68 -0.31 -8.83 -5.36 -21.45 -176.63 -0.79 -5.05 12.62 -1.42 6.46 -0.16 6.78 2.68 11.04 4.42 10.41 8.36 11.51 11.35 8.52 3.31 2.84 0.63 1.89 -0.63 2.21 -8.99 29.97 -10.25 34.06 -105.82 -0.16 -17.51 -22.24 -18.3 -21.61 -17.35 -20.19 -1.1 -3.15 1.89 -2.68 13.88 -10.57 13.25 -11.35 6.31 -5.68 12.14 -16.24 10.88 -17.03 8.67 -20.5 7.25 -21.13 26.97 -80.59 14.03 -39.27 41.64 -123.33 5.2 -22.71 0.47 -23.34 -1.1 -10.41 -3.63 -9.78 -8.36 -12.77 -10.57 -11.04 -1.42 -1.58 0.16 -1.89 7.25 -24.29 8.36 -23.97 141.62 0zm-293.02 -640.61l-13.72 23.65 -7.88 13.25 9.15 1.58 11.35 3.15 9.46 5.52 7.88 8.04 6.62 11.04 4.1 8.67 0 381.5 -3.47 6.46 -8.2 12.62 -10.41 11.35 -11.51 9.15 -11.2 5.83 -6.63 3.31 5.99 11.2 12.3 23.66 6.15 13.56 195.87 0 4.42 -7.73 12.15 -25.39 8.04 -17.67 -11.83 -3.15 -10.09 -3.47 -8.51 -4.42 -6.62 -5.52 -4.73 -6.15 -3.63 -6.15 -0.47 -73.65 0.16 -57.56 1.11 -17.19 44.79 -36.9 11.04 -8.36 19.08 35.8 25.87 54.57 13.09 27.13 20.19 41.48 8.2 18.45 3.94 11.83 0 8.52 -3.15 8.04 -3.94 5.99 -5.36 4.89 -7.41 3.78 -9.46 3.16 -12.15 3.63 11.35 23.18 11.83 22.87 46.05 0 105.35 -0.95 58.99 -0.95 5.68 -11.2 12.14 -22.08 6.31 -10.88 -8.83 -3 -10.72 -4.26 -10.09 -5.99 -9.46 -7.25 -8.36 -8.67 -17.51 -23.34 -11.67 -20.82 -11.04 -23.34 -9.62 -22.24 -5.99 -13.72 -35.17 -77.12 -19.24 -42.42 -17.19 -38.01 -9.62 -22.55 -5.36 -11.67 3.63 -2.99 57.88 -50.15 40.84 -34.85 22.08 -17.5 24.6 -12.93 16.09 -6.94 15.14 -2.52 15.61 -2.21 -15.93 -32.02 -16.56 -31.54 -95.25 0 -95.25 -0.16 -8.67 14.36 -12.46 21.76 -5.05 11.52 6.47 3.31 8.2 6.31 4.57 8.04 0.63 9.15 -3.47 9.62 -5.2 6.47 -7.41 6.78 -17.19 14.51 -50.31 42.11 -34.22 29.02 -22.08 19.08 -0.31 -55.67 0 -49.05 0.95 -8.21 1.73 -4.57 5.99 -9.94 7.57 -7.41 10.09 -5.68 14.35 -5.2 12.62 -3.94 -7.41 -14.03 -14.03 -26.18 -6.31 -12.15 -194.14 0 -6.15 10.73zm293.02 -653.39l85.79 0.63 2.68 0 1.42 1.74 12.3 43.21 -12.62 12.93 -5.52 7.1 -4.57 7.73 -1.73 5.36 -0.63 5.68 -0.16 11.2 0.47 12.77 2.37 12.62 18.45 59.77 15.77 50.78 8.04 27.76 28.23 90.53 22.24 70.5 5.2 14.03 6.63 13.72 8.36 12.46 10.88 10.41 15.77 9.31 16.56 8.04 -11.51 34.7 -11.99 34.54 -149.03 0 -11.2 -14.82 -12.46 -13.72 -28.54 -32.65 -1.58 -2.84 1.11 -2.84 17.03 -13.88 7.1 -8.36 5.52 -9.46 2.84 -8.68 -0.31 -8.83 -5.36 -21.45 -176.63 -0.79 -5.05 12.62 -1.42 6.46 -0.16 6.78 2.68 11.04 4.42 10.41 8.36 11.51 11.35 8.52 3.31 2.84 0.63 1.89 -0.63 2.21 -8.99 29.97 -10.25 34.06 -105.82 0 -17.51 -22.39 -18.3 -21.61 -17.35 -20.19 -1.1 -3.15 1.89 -2.68 13.88 -10.57 13.25 -11.35 6.31 -5.68 12.14 -16.24 10.88 -17.04 8.67 -20.5 7.25 -21.13 26.97 -80.59 14.03 -39.27 41.64 -123.33 5.2 -22.71 0.47 -23.34 -1.1 -10.41 -3.63 -9.77 -8.36 -12.77 -10.57 -11.04 -1.42 -1.58 0.16 -1.89 7.25 -24.29 8.36 -23.97 141.62 0zm-45.26 1426l-27.44 79.64 -46.68 138.63 -0.16 1.11 0.95 0.32 2.68 0 138.47 1.26 -8.99 -31.22 -32.33 -106.3 -25.23 -82.01 -0.47 -1.1 -0.79 -0.32z"/>
 </g>
</svg>
