<?xml version="1.0" encoding="UTF-8"?>
<!DOCTYPE svg PUBLIC "-//W3C//DTD SVG 1.1//EN" "http://www.w3.org/Graphics/SVG/1.1/DTD/svg11.dtd">
<!-- Creator: CorelDRAW 2020 (64-Bit) -->
<svg xmlns="http://www.w3.org/2000/svg" xml:space="preserve" width="3.59784in" height="10.9892in" version="1.1" style="shape-rendering:geometricPrecision; text-rendering:geometricPrecision; image-rendering:optimizeQuality; fill-rule:evenodd; clip-rule:evenodd"
viewBox="0 0 419.14 1280.23"
 xmlns:xlink="http://www.w3.org/1999/xlink"
 xmlns:xodm="http://www.corel.com/coreldraw/odm/2003">
 <defs>
  <style type="text/css">
   <![CDATA[
    .fil0 {fill:#373435}
    .fil1 {fill:#A47E3C}
   ]]>
  </style>
 </defs>
 <g id="Layer_x0020_1">
  <metadata id="CorelCorpID_0Corel-Layer"/>
  <path class="fil0" d="M180.65 0l122.69 1.15 7.33 0.23 17.64 60.02 -1.83 2.64 -2.64 2.06 -14.43 12.83 -1.26 2.18 -0.34 2.4 0.23 4.93 2.87 13.74 4.01 13.63 23.71 76.18 23.14 75.15 11.11 34.37 4.58 7.44 6.42 5.96 6.19 3.21 6.41 2.63 21.31 8.25 0 1.38 -0.69 1.49 -4.58 12.14 -3.9 12.48 -17.07 54.99 -125.55 0 -13.97 -17.3 -14.66 -16.72 -15.12 -17.3 -15.46 -16.96 28.18 -22.22 -59.22 0.69 -6.88 0.8 15.92 8.59 1.49 1.72 -0.11 2.52 -13.06 45.02 -9.16 31.16 -96.91 0 -37.11 -45.25 -19.25 -23.14 -1.26 -1.72 -0.46 -1.83 16.04 -11.57 12.71 -9.97 12.26 -10.54 5.15 -6.87 4.24 -7.44 5.73 -13.4 4.81 -13.86 49.03 -144.68 5.04 -15.12 1.83 -9.05 0.23 -9.17 -1.72 -4.69 -2.86 -3.9 -7.22 -6.87 -4.47 -3.67 -3.89 -4.24 0.92 -4.47 14.78 -47.88 3.67 -12.14 55.44 0zm-63 833.48l-24.51 -45.7 -2.52 -5.04 -0.46 -2.64 1.83 -1.37 4.24 -0.69 4.58 -1.26 -9.85 -3.78 -17.53 -7.22 -17.3 -9.39 -8.25 -6.3 -9.05 -8.94 -8.82 -10.42 -7.56 -10.65 -9.85 -17.07 -6.42 -17.18 -3.55 -11.8 -1.95 -9.85 -0.69 -10.88 0.12 -14.89 1.26 -22.8 2.75 -12.6 4.24 -11.34 4.93 -12.14 5.61 -10.77 6.99 -10.77 8.93 -11.57 11.8 -11.45 15.69 -11 17.3 -9.17 16.61 -5.95 6.76 -1.72 -6.87 -1.72 -6.76 -2.17 6.07 -11.46 25.09 -46.74 3.78 -7.1 168.28 0 11.23 21.42 17.3 32.88 6.07 11.57 -6.19 1.6 -6.07 1.72 7.9 2.52 20.28 8.48 18.33 9.73 8.02 6.53 9.28 9.4 9.05 10.54 7.44 10.08 7.79 14.66 6.65 16.61 4.01 12.83 2.06 8.82 0.69 9.39 0 14.55 -0.46 21.08 -2.18 12.6 -5.04 16.15 -4.24 10.42 -4.01 8.25 -6.3 10.42 -7.56 10.65 -7.67 9.28 -12.03 11.8 -10.88 7.45 -17.87 8.36 -16.95 6.99 -4.35 2.06 3.66 1.15 5.61 1.37 -1.95 5.61 -7.79 15.47 -17.53 33.56 -6.64 13.06 -167.59 0 -6.99 -13.52zm64.38 35.28l122.57 1.15 7.45 0.23 17.64 60.03 -1.95 2.63 -2.52 2.06 -14.44 12.83 -1.26 2.18 -0.46 2.41 0.23 4.92 2.98 13.75 4.01 13.63 23.71 76.18 23.02 75.15 11.23 34.36 4.58 7.45 6.42 6.07 6.07 3.09 6.53 2.63 21.31 8.25 -0.11 1.37 -0.69 1.49 -4.58 12.14 -3.78 12.49 -17.18 54.99 -125.43 0 -13.98 -17.3 -14.66 -16.73 -15.12 -17.3 -15.47 -16.96 28.18 -22.22 -59.22 0.69 -6.87 0.8 15.81 8.59 1.6 1.83 -0.11 2.41 -13.06 45.02 -9.17 31.16 -96.91 0 -37.11 -45.25 -19.36 -23.14 -1.15 -1.72 -0.57 -1.83 16.15 -11.57 12.72 -9.97 12.26 -10.54 5.15 -6.87 4.24 -7.45 5.61 -13.4 4.93 -13.86 48.91 -144.68 5.04 -15.12 1.95 -9.05 0.23 -9.16 -1.72 -4.7 -2.86 -3.89 -7.22 -6.76 -4.47 -3.78 -3.89 -4.24 0.92 -4.47 14.66 -47.88 3.78 -12.14 55.44 0zm22.45 183.86l-2.06 4.58 -1.26 4.81 -6.3 19.25 -6.53 19.13 7.9 0.69 26.12 -0.23 -7.9 -23.14 -8.94 -24.51 -1.03 -0.57zm-1.38 -868.76l-1.95 4.58 -1.38 4.81 -6.18 19.25 -6.65 19.13 8.02 0.69 26 -0.23 -7.91 -23.14 -8.82 -24.52 -1.15 -0.57z"/>
  <path class="fil1" d="M211.92 460.04l67.01 0.69 14.09 26.92 -10.42 2.52 -9.85 3.89 -5.61 3.78 -4.69 4.81 -3.55 5.73 -2.18 6.41 -0.57 3.78 0.57 3.55 3.67 1.95 4.24 0.69 18.67 1.38 18.67 1.72 14.09 3.78 13.63 5.04 9.73 4.35 9.05 5.84 9.51 8.25 8.48 9.39 7.56 10.08 6.42 10.88 6.18 13.29 4.35 13.97 2.06 10.42 0.92 10.54 -0.46 19.25 -2.63 19.02 -1.83 6.53 -2.64 6.3 -3.09 7.91 -3.67 7.68 -9.39 14.32 -11.11 13.06 -10.43 8.48 -11.68 6.87 -16.73 7.45 -17.75 4.81 -18.56 2.52 -18.78 0.8 -6.65 0.57 -1.38 3.32 -0.11 3.78 0.69 5.84 1.83 5.61 2.98 4.93 4.24 4.12 6.07 3.32 6.41 2.29 13.29 3.32 0.12 0.8 -0.57 1.03 -13.74 26.46 -140.67 -1.37 -14.09 -26.81 13.29 -3.55 6.42 -2.4 5.96 -3.21 3.89 -4.35 2.75 -5.16 2.75 -7.22 0.92 -7.56 -0.8 -1.83 -2.06 -0.92 -10.43 -1.14 -10.54 -0.69 -22.34 -2.75 -10.88 -2.63 -10.65 -3.55 -10.31 -4.47 -9.85 -5.16 -10.88 -8.13 -9.51 -9.62 -8.25 -10.77 -6.99 -11.57 -6.53 -14.32 -4.24 -15.24 -3.21 -27.38 0.57 -12.14 1.95 -12.14 2.41 -10.54 3.55 -10.2 9.62 -19.47 10.2 -14.32 12.37 -12.6 10.31 -6.87 11 -5.73 18.44 -7.22 19.59 -4.12 17.64 -1.49 17.64 -1.03 1.95 -1.72 0.46 -2.86 -0.34 -5.39 -1.49 -5.15 -5.61 -9.28 -5.39 -4.81 -6.41 -3.21 -13.98 -3.66 -2.98 -0.8 14.09 -26.8 74.23 -0.69zm-51.55 124.75l-6.53 0.57 -6.3 1.49 -12.03 5.04 -7.79 5.5 -6.42 6.76 -5.27 7.9 -4.12 8.48 -2.75 9.4 -0.57 9.62 1.03 11.22 2.63 10.88 4.47 10.31 6.53 9.05 8.02 6.76 9.16 5.04 9.74 4.13 10.31 2.17 7.22 0.46 -2.41 -114.78 -4.92 0zm91.41 22.34l-1.15 89.69 5.27 -0.11 5.27 -1.03 11.46 -4.01 10.77 -5.73 7.21 -6.65 6.07 -7.67 3.09 -5.5 2.17 -5.84 2.75 -12.37 0.69 -7.68 -0.34 -7.79 -1.49 -7.67 -2.52 -7.33 -4.01 -8.48 -5.5 -7.44 -7.1 -6.65 -8.13 -5.16 -9.51 -2.86 -9.85 -1.95 -4.58 0 -0.57 22.22zm-16.72 -583.3l56.13 0.34 1.72 0.12 0.91 1.03 8.02 28.29 -8.13 8.48 -6.64 9.74 -1.61 7.1 0 7.44 0.23 8.36 1.6 8.25 12.03 39.06 10.31 33.33 5.27 18.1 18.44 59.22 14.66 46.05 3.44 9.28 4.24 8.93 5.5 8.13 7.1 6.87 10.31 6.07 10.77 5.27 -7.45 22.79 -7.9 22.45 -97.48 0 -7.33 -9.62 -8.13 -9.05 -18.67 -21.3 -1.03 -1.95 0.8 -1.72 11.11 -9.16 4.58 -5.5 3.67 -6.19 1.83 -5.61 -0.23 -5.84 -3.55 -13.98 -115.58 -0.57 -3.21 8.25 -0.92 4.35 -0.11 4.35 1.72 7.21 2.87 6.87 5.5 7.45 7.33 5.61 2.17 1.95 0.46 1.15 -0.46 1.37 -5.73 19.7 -6.76 22.22 -69.3 0 -11.46 -14.55 -11.91 -14.2 -11.34 -13.18 -0.8 -2.06 1.26 -1.72 9.05 -6.99 8.71 -7.44 4.12 -3.67 7.9 -10.65 7.1 -11.11 5.73 -13.52 4.81 -13.75 17.64 -52.69 9.05 -25.78 27.38 -80.64 3.32 -14.89 0.34 -15.23 -0.69 -6.87 -2.41 -6.3 -5.5 -8.36 -6.87 -7.33 -0.92 -0.92 0.12 -1.26 4.69 -16.04 5.5 -15.58 92.67 0zm-29.67 86.37l-17.99 52.12 -30.47 90.73 -0.11 0.69 0.69 0.23 1.72 0 90.5 0.8 -5.73 -20.39 -21.19 -69.53 -16.61 -53.72 -0.23 -0.69 -0.57 -0.23zm30.93 782.39l56.24 0.35 1.72 0.11 0.92 1.03 8.02 28.41 -8.25 8.36 -6.53 9.73 -1.61 7.1 -0.11 7.45 0.34 8.36 1.49 8.25 12.14 39.06 10.31 33.33 5.15 18.1 18.56 59.22 14.55 46.05 3.43 9.28 4.24 8.94 5.5 8.13 7.1 6.87 10.31 6.07 10.88 5.27 -7.56 22.79 -7.79 22.45 -97.48 0 -7.45 -9.62 -8.02 -9.05 -18.67 -21.31 -1.14 -1.95 0.8 -1.72 11.11 -9.16 4.7 -5.39 3.55 -6.3 1.83 -5.61 -0.11 -5.84 -3.55 -13.98 -115.7 -0.46 -3.21 8.13 -0.92 4.35 -0.11 4.35 1.72 7.22 2.98 6.87 5.39 7.45 7.44 5.61 2.18 1.95 0.46 1.26 -0.46 1.37 -5.84 19.59 -6.76 22.22 -69.19 0 -11.46 -14.55 -12.03 -14.2 -11.34 -13.17 -0.69 -2.06 1.14 -1.72 9.16 -6.99 8.59 -7.44 4.24 -3.67 7.9 -10.66 7.1 -11.11 5.61 -13.52 4.81 -13.75 17.64 -52.69 9.16 -25.78 27.26 -80.65 3.43 -14.89 0.35 -15.23 -0.8 -6.87 -2.29 -6.3 -5.5 -8.36 -6.99 -7.33 -0.92 -0.92 0.12 -1.26 4.69 -15.92 5.5 -15.7 92.67 0zm-29.56 86.37l-17.98 52.12 -30.47 90.73 -0.11 0.69 0.57 0.23 1.72 0 90.61 0.8 -5.84 -20.39 -21.19 -69.53 -16.5 -53.73 -0.23 -0.69 -0.57 -0.23z"/>
 </g>
</svg>
