<?xml version="1.0" encoding="UTF-8"?>
<!DOCTYPE svg PUBLIC "-//W3C//DTD SVG 1.1//EN" "http://www.w3.org/Graphics/SVG/1.1/DTD/svg11.dtd">
<!-- Creator: CorelDRAW 2020 (64-Bit) -->
<svg xmlns="http://www.w3.org/2000/svg" xml:space="preserve" width="4.0767in" height="11.9882in" version="1.1" style="shape-rendering:geometricPrecision; text-rendering:geometricPrecision; image-rendering:optimizeQuality; fill-rule:evenodd; clip-rule:evenodd"
viewBox="0 0 1747.64 5139.23"
 xmlns:xlink="http://www.w3.org/1999/xlink"
 xmlns:xodm="http://www.corel.com/coreldraw/odm/2003">
 <defs>
  <style type="text/css">
   <![CDATA[
    .fil1 {fill:#FEFEFE}
    .fil0 {fill:#ED3237}
   ]]>
  </style>
 </defs>
 <g id="Layer_x0020_1">
  <metadata id="CorelCorpID_0Corel-Layer"/>
  <path class="fil0" d="M754.11 24.45l88.1 153.44 91.88 159.34 40.89 74.19 24.87 38.78 22.77 39.62 38.77 67.44 44.69 81.35 45.95 80.51 102.43 178.72 69.97 118.04 50.58 89.36 45.52 79.67 64.49 112.97 63.23 111.71 59.43 101.59 39.2 69.55 82.2 144.16 18.54 31.19 -1747.64 1.26 11.39 -35.41 14.74 -34.15 44.26 -104.11 45.52 -108.33 50.16 -118.03 15.6 -41.73 82.61 -193.9 33.72 -79.25 35.84 -86 35.41 -85.99 89.37 -210.77 79.67 -191.79 29.92 -73.34 37.93 -88.53 51.85 -122.66 51.84 -121.82 27.83 -61.55 16.44 24.45zm-727.13 3410.98l41.31 -82.2 62.81 -126.03 38.78 -77.56 128.98 -259.24 128.14 -260.07 16.44 -32.46 -16.02 -33.72 -239.01 -488.12 -74.19 -153.43 -34.57 -72.93 -22.33 -44.68 1549.1 0 4.21 16.44 52.69 212.02 24.45 100.75 13.49 52.27 19.81 78.4 5.91 26.98 -5.06 8.44 -96.11 78.82 -45.95 37.52 -45.52 38.35 -60.7 52.28 -40.05 32.03 -16.01 -32.45 -28.24 -64.91 -31.62 -72.93 -18.97 -34.15 -6.32 -5.9 -7.16 -2.53 -206.97 -2.53 -194.74 0 21.07 44.26 31.62 61.54 50.58 96.11 40.46 78.4 -77.56 153.44 -77.99 153.43 109.6 0 205.71 2.11 96.52 2.11 22.34 -33.3 46.79 -69.55 45.94 -69.13 20.66 -32.89 21.5 18.55 166.5 142.05 62.38 55.22 26.13 24.45 -5.47 17.27 -17.28 59.44 -23.19 85.14 -22.34 78.83 -24.86 86.83 -24.45 85.57 -15.18 53.96 -4.64 19.8 -785.72 0 -785.73 -2.11zm996.06 47.21l130.68 0.42 130.68 5.91 33.72 5.9 33.3 9.28 32.04 13.49 29.92 17.28 34.15 24.86 31.62 27.4 32.04 41.31 25.71 45.1 26.13 63.23 17.71 66.17 7.58 74.61 2.95 75.46 2.11 206.54 -0.84 206.97 -2.11 215.41 -5.48 215.82 -2.53 30.35 -7.17 29.51 -15.18 50.16 -19.39 48.48 -32.03 49.74 -39.2 44.69 -48.05 38.36 -53.96 28.24 -45.1 19.81 -47.22 0.84 -832.92 1.27 -59.02 -17.28 -56.48 -24.45 -40.05 -22.33 -34.15 -29.93 -37.51 -42.57 -32.87 -45.52 -16.03 -32.46 -11.8 -33.72 -17.7 -69.97 -10.54 -51.84 0 -931.57 23.18 -95.26 16.45 -45.96 21.91 -43.83 28.67 -43.84 34.56 -38.78 40.05 -33.3 45.52 -25.29 68.7 -25.72 52.27 -1.68 565.69 -1.27zm-131.93 1004.92l-72.5 0.42 -72.08 6.32 -32.87 14.33 -25.3 24.87 -13.06 27.39 -4.63 29.93 0.42 19.81 3.79 19.39 8.01 17.7 13.06 14.75 26.13 15.18 28.67 10.12 33.3 2.53 33.72 0 128.14 -1.27 39.62 -17.27 21.92 -18.98 13.48 -25.71 5.91 -26.56 2.53 -26.56 0.84 -54.37 -1.26 -26.14 -137.84 -5.9zm-74.61 -573.7l-53.95 3.8 -25.72 6.74 -23.18 13.49 -15.18 16.45 -10.96 19.38 -6.33 21.92 -2.53 22.34 -2.11 44.26 0.85 44.25 4.21 6.75 8.01 0.41 247.86 -3.37 16.02 -2.95 14.75 -6.32 26.98 -18.13 20.65 -23.6 6.75 -14.33 2.94 -15.18 0.42 -27.83 -4.21 -26.97 -13.5 -24.03 -22.33 -16.44 -22.34 -9.69 -23.18 -6.33 -48.48 -4.21 -75.46 -0.42zm-60.7 -2795.55l-46.36 113.81 10.53 4.21 13.07 0.85 51.84 0.84 51.85 -3.37 7.58 -1.69 2.12 -5.06 -6.33 -13.06 -56.06 -102.44 -16.03 -21.5 -12.22 27.4z"/>
  <path class="fil1" d="M175.35 3344.81l252.5 -511.31 104.11 -211.6 11.39 -26.13 -12.65 -26.98 -270.2 -553.46 -54.79 -118.03 666 -1.26 666.43 1.68 22.77 100.74 24.86 100.33 28.25 115.92 11.38 45.94 -25.3 22.34 -48.89 40.89 -53.96 44.68 -30.77 23.61 -6.32 -11.81 -15.18 -34.98 -23.6 -54.37 -18.97 -42.16 -3.8 -10.53 -154.7 -2.53 -314.03 -2.53 -159.34 0 12.65 21.5 56.49 109.17 85.14 163.55 40.89 77.14 -99.06 197.27 -98.21 198.54 303.5 2.11 301.82 1.26 12.23 -16.85 24.44 -37.1 40.05 -61.55 27.82 -41.72 13.91 10.96 23.19 21.5 37.93 32.89 53.95 45.94 25.3 23.19 -13.07 49.31 -29.92 102.44 -23.18 79.67 -22.77 80.09 -17.28 53.95 -675.28 0 -675.71 -1.68zm583.82 -3136.14l16.86 24.45 14.33 26.13 40.89 73.34 44.26 71.24 91.47 161.45 85.14 146.69 45.52 84.72 65.34 111.3 55.22 95.68 69.97 122.24 42.99 75.87 53.11 93.59 78.41 135.3 58.59 100.32 56.49 101.59 14.75 28.66 -1419.7 0.42 -31.18 -0.42 13.91 -43.42 17.7 -41.72 56.07 -135.74 17.28 -35.83 14.75 -37.1 40.46 -95.68 36.25 -85.14 57.75 -137.84 24.03 -60.7 52.69 -123.93 54.37 -127.29 36.67 -92.32 40.47 -95.27 19.8 -42.99 17.71 -43.42 45.1 -106.23 30.77 -74.19 33.31 -73.34 3.79 -1.69 4.64 1.27zm-7.17 736.4l-28.66 67.02 -25.72 68.29 -64.49 167.34 -13.91 43.42 4.64 4.22 5.91 1.26 12.64 0.84 190.11 1.69 98.65 -2.53 -0.42 -7.59 -3.38 -7.17 -36.25 -78.4 -38.78 -77.15 -84.73 -166.49 -10.53 -15.6 -5.06 0.85zm149.64 2612.19l382.74 6.74 67.02 31.19 31.19 19.8 28.24 23.61 25.71 33.3 21.5 36.25 17.71 39.2 11.38 41.3 8.86 54.79 4.21 55.65 2.95 111.27 -1.68 428.69 -3.38 357.88 -29.09 85.56 -18.97 40.47 -26.13 36.67 -29.93 31.19 -35.83 24.03 -32.46 16.02 -33.71 11.8 -32.89 2.53 -32.88 0.42 -470 1.69 -278.63 -2.95 -48.05 -8.44 -46.37 -14.33 -31.19 -13.49 -27.82 -18.97 -38.78 -42.58 -30.77 -48.89 -22.34 -58.17 -12.22 -61.55 -7.17 -90.2 -2.53 -90.64 0 -229.72 2.95 -230.15 6.32 -318.25 8.44 -52.28 18.55 -49.31 18.97 -37.94 25.71 -33.3 32.89 -32.89 37.93 -27.39 46.79 -23.19 47.21 -1.26 429.54 -4.21 16.02 0zm186.73 786.56l-7.59 10.96 -9.69 8.44 -23.19 13.06 -35.83 10.54 -32.04 15.17 -34.13 8.86 -41.73 5.9 -42.16 0 -12.22 -2.53 -12.65 1.69 -40.04 2.11 -53.11 3.38 -52.27 10.11 -25.3 10.54 -21.91 16.44 -21.92 22.76 -18.55 25.72 -14.34 28.24 -8.85 30.77 -4.21 33.72 1.26 34.57 6.33 33.72 11.8 32.04 12.22 18.54 15.17 15.59 37.1 22.77 30.35 10.54 31.62 6.32 64.49 3.37 194.33 -0.84 43.41 -20.24 19.81 -12.64 18.56 -15.18 19.38 -25.3 13.5 -29.09 7.59 -31.19 3.37 -32.03 2.53 -117.6 -1.26 -117.6 -4.21 -18.55 -12.22 -13.91 -3.38 0.85zm-179.14 -521.01l-95.69 0.42 -95.68 3.38 -34.15 7.16 -30.34 16.87 -34.15 32.03 -13.07 19.39 -8.85 21.5 -7.59 31.19 -3.79 32.04 -1.68 64.91 -0.42 200.23 12.65 15.59 7.59 6.74 9.27 3.8 8.43 -1.27 7.17 -3.37 4.21 -8.86 7.59 -5.9 32.88 -24.87 16.87 -11.8 18.55 -9.27 51.84 -13.91 53.11 -5.91 16.44 1.27 14.33 6.74 14.75 -1.68 15.18 -4.22 40.46 -2.52 40.47 -2.53 31.62 -5.91 30.77 -10.54 27.83 -16.02 23.18 -22.76 34.15 -53.12 8.44 -22.76 5.05 -23.6 3.38 -48.48 -6.74 -50.58 -8.01 -24.03 -12.22 -22.77 -13.91 -16.02 -16.44 -13.48 -37.1 -21.5 -26.97 -10.54 -28.25 -3.79 -61.12 -1.27z"/>
 </g>
</svg>
