<?xml version="1.0" encoding="UTF-8"?>
<!DOCTYPE svg PUBLIC "-//W3C//DTD SVG 1.1//EN" "http://www.w3.org/Graphics/SVG/1.1/DTD/svg11.dtd">
<!-- Creator: CorelDRAW 2020 (64-Bit) -->
<svg xmlns="http://www.w3.org/2000/svg" xml:space="preserve" width="3.74508in" height="11.5in" version="1.1" style="shape-rendering:geometricPrecision; text-rendering:geometricPrecision; image-rendering:optimizeQuality; fill-rule:evenodd; clip-rule:evenodd"
viewBox="0 0 546.22 1677.27"
 xmlns:xlink="http://www.w3.org/1999/xlink"
 xmlns:xodm="http://www.corel.com/coreldraw/odm/2003">
 <defs>
  <style type="text/css">
   <![CDATA[
    .fil0 {fill:#84716B}
    .fil1 {fill:#E5D831}
   ]]>
  </style>
 </defs>
 <g id="Layer_x0020_1">
  <metadata id="CorelCorpID_0Corel-Layer"/>
  <path class="fil0" d="M336.39 1132.37l39.37 0.29 19.54 0.73 19.54 1.31 11.35 2.19 11.09 3.5 10.66 4.96 9.77 5.98 10.07 7.58 9.31 8.17 10.53 13.42 8.28 14.88 8.78 20.85 5.68 21.73 2.47 25.23 1.02 25.23 0.59 68.41 -0.3 68.25 -0.73 70.16 -1.62 70.15 -1.02 9.77 -2.18 9.77 -5.12 16.34 -6.27 16.04 -10.79 16.34 -12.97 14.59 -7.43 6.56 -8.02 5.98 -17.52 9.33 -15.02 6.42 -15.87 0.44 -273.69 0.29 -19.57 -5.69 -18.65 -8.02 -13.13 -7.44 -5.97 -4.52 -5.25 -5.4 -12.24 -13.85 -10.79 -15.02 -5.12 -10.06 -3.8 -10.79 -5.81 -22.17 -3.66 -18.67 -0.13 -306.43 3.33 -15.61 4.26 -15.46 5.38 -15.02 7 -14.44 9.34 -14.44 11.39 -12.69 13.27 -10.94 14.85 -8.46 22.9 -8.75 8.75 -0.58 8.61 0 195.54 -0.44zm-176 -34.42l-12.41 -22.75 -10.2 -18.67 -11.52 -21.44 -9.34 -18.23 8.75 -1.6 5.54 -1.02 1.62 -1.17 -9.47 -3.21 -12.11 -4.52 -16.04 -7.44 -16.04 -8.61 -11.81 -7.58 -10.07 -8.9 -11.22 -11.96 -10.49 -12.98 -8.18 -11.52 -9.9 -18.67 -7.59 -18.23 -5.25 -18.52 -3.2 -19.54 -1.19 -16.04 -0.26 -15.46 0.86 -15.02 1.91 -14.44 3.2 -14 4.06 -13.71 5.28 -13.42 6.4 -13.27 14.16 -22.9 7.72 -9.92 8.58 -9.19 9.21 -8.31 10.07 -7.88 22.87 -13.56 16.5 -7.88 12.97 -4.67 11.09 -2.77 -9.21 -2.33 -8.88 -2.18 2.61 -4.52 31.95 -59.36 12.38 -23.77 109.37 -0.29 109.37 -0.29 12.97 25.23 15.18 28.44 10.07 18.96 8.15 15.75 -8.75 2.19 -8.61 2.04 9.93 2.92 11.65 4.23 14.29 6.42 26.1 14.15 8.02 5.98 8.32 7.58 17.36 19.54 11.22 15.61 9.04 16.34 7.72 19.11 7.43 23.77 2.21 13.27 1.16 18.67 0.3 19.69 -1.19 16.19 -4.52 23.19 -7.56 22.32 -10.49 21.73 -13.56 21 -17.23 19.54 -9.9 9.19 -7.72 6.27 -23.2 12.69 -25.38 10.5 -13.56 4.81 8.61 1.9 8.61 1.46 -8.75 16.92 -18.51 35.3 -14.59 26.98 -4.69 9.19 -218.28 0 -3.93 -7.29zm25.81 -566.19l-18.98 -29.61 -18.78 -28.73 -7.29 -10.8 -0.89 -2.04 0.3 -1.46 6.11 -3.79 17.36 -10.65 11.81 -7.14 0.73 -8.31 0.46 -27.42 0.26 -131.41 0 -166.56 -3.2 -2.63 -18.81 -12.11 -15.74 -9.63 1.75 -3.35 7.16 -10.07 18.78 -28.15 18.98 -29.61 5.84 -8.31 163.16 0 13.99 22.75 19.67 30.77 11.52 17.5 5.84 9.33 -8.88 5.11 -18.55 11.23 -8.28 6.13 -1.32 2.63 -0.59 3.65 -0.43 166.56 0.59 138.85 0.86 18.81 0.59 2.92 0.73 0.87 11.81 8.02 16.6 10.21 7.29 3.94 -2.9 4.52 -8.32 12.98 -16.9 25.81 -17.95 27.42 -6.83 10.21 -161.71 0 -5.84 -8.46zm71.75 742.52l-16.5 1.17 -8.02 2.04 -7.29 3.94 -5.38 5.4 -3.93 6.56 -2.34 7.44 -0.89 7.58 -0.73 14.73 0.46 14.58 1.29 2.04 2.64 0.29 40.82 -0.44 40.82 -0.88 8.02 -2.04 7.16 -4.23 8.75 -7.88 3.07 -4.96 1.58 -5.69 0.43 -9.48 -1.15 -9.34 -1.75 -4.37 -2.61 -3.94 -3.5 -3.35 -4.09 -2.33 -7.43 -3.21 -7.76 -2.04 -16.04 -1.46 -25.64 -0.15zm24.49 188.73l-23.2 0.15 -11.65 0.58 -11.39 1.46 -9.47 3.5 -7.43 6.42 -5.54 8.17 -2.34 9.77 -0.43 7 0.59 7 2.31 6.56 4.22 5.83 8.91 5.54 10.07 3.79 10.92 0.73 10.96 0.15 42.57 -0.29 6.57 -2.62 6.27 -3.21 7.43 -6.13 2.61 -4.08 1.75 -4.67 1.91 -8.6 0.86 -8.75 0.3 -17.79 -0.3 -8.6 -45.77 -1.9 -0.73 0z"/>
  <path class="fil1" d="M252.1 509.31l-45.64 -0.29 -2.64 -5.4 -6.53 -10.21 -8.48 -11.81 -4.65 -7.44 -1.15 -4.09 2.31 -3.35 6.27 -4.67 8.91 -7.44 3.79 -7.87 2.77 -8.17 0.43 -165.39 0.13 -100.93 -0.43 -52.65 -1.58 -21.88 -1.48 -5.1 -1.88 -4.09 -2.77 -3.94 -4.39 -4.52 -11.52 -8.31 -0.86 -1.02 0.13 -1.75 5.25 -8.31 13.13 -19.98 6.4 -10.21 28.88 -0.58 65.9 0 36.9 0.58 9.77 15.61 12.24 19.98 2.77 4.52 -9.04 5.98 -6.83 5.25 -4.39 5.54 -2.61 7.29 -1.75 10.07 -0.89 50.32 -0.43 120.03 0.73 146.87 1.58 20.71 1.32 4.67 1.62 3.65 6.57 8.02 9.6 7.58 4.69 2.77 -2.77 4.52 -8.18 12.69 -10.49 15.9 -5.12 7.88 -19.97 -0.44 -65.61 -0.58zm78.31 277.99l-2.34 120.76 9.77 -0.44 9.47 -2.33 9.64 -3.8 9.04 -4.81 8.45 -5.84 7.72 -6.71 7.16 -9.33 5.25 -10.36 2.47 -8.46 1.16 -8.75 1.02 -17.79 -0.43 -12.4 -1.19 -6.13 -2.01 -5.83 -4.26 -9.04 -5.51 -8.31 -8.78 -9.77 -10.03 -8.31 -9.34 -3.79 -9.93 -2.62 -8.15 -1.75 -8.32 -0.58 -0.86 26.4zm-119.86 -26.4l-7.46 0.58 -7.13 1.46 -13.56 5.54 -12.24 8.31 -10.66 10.21 -4.52 5.4 -3.79 5.98 -5.25 13.42 -2.61 13.27 -0.16 13.56 1.91 13.42 3.93 12.98 3.93 9.04 5.28 8.17 6.27 7.58 7.56 6.27 13.86 8.02 14.72 5.98 9.34 1.46 9.34 0.15 -1.75 -137.68 0 -13.13 -7 0zm60.66 -163.79l94.62 0.87 18.38 35.15 -17.79 4.67 -8.75 3.21 -8.18 4.38 -4.78 4.96 -3.5 5.98 -3.53 9.48 -0.99 10.06 0.13 4.38 12.11 1.89 12.38 1.02 24.52 1.89 12.24 1.75 11.95 3.07 14.59 4.81 14.12 5.83 13.43 7.44 12.24 9.19 13.43 14 11.65 15.61 10.79 18.52 8.61 19.69 5.54 22.9 2.01 23.34 -1.15 23.48 -4.39 23.19 -7.56 22.46 -10.36 21.15 -13.27 17.65 -15.91 15.61 -16.9 11.67 -18.51 9.63 -13 5.25 -13.99 3.21 -25.81 3.35 -25.94 2.33 -6.14 0.29 -5.84 1.02 -1.29 1.75 -0.16 2.04 0.3 4.38 3.37 12.83 2.77 5.98 3.63 5.4 4.82 3.79 5.54 2.77 11.65 3.94 15.91 3.94 -19.97 36.9 -183.72 0 -18.55 -36.17 1.62 -1.02 2.05 -0.29 11.52 -2.33 11.09 -4.09 7 -4.38 5.97 -5.69 4.52 -6.85 2.61 -7.73 0.89 -6.56 -0.13 -6.56 -1.19 -1.31 -1.58 -0.73 -3.66 -0.58 -41.71 -3.5 -11.35 -2.19 -11.09 -2.33 -21.29 -7.59 -20.43 -10.06 -8.28 -5.11 -7.89 -5.83 -7 -6.71 -6.57 -7.29 -15.15 -21.88 -6.27 -11.67 -5.25 -12.25 -6.86 -22.17 -2.18 -11.23 -1.19 -11.67 -0.13 -26.54 1.32 -13.27 2.77 -13.13 5.68 -17.65 7.85 -17.21 9.34 -16.19 11.39 -14.73 12.54 -12.69 14.42 -10.06 12.11 -6.71 12.67 -5.84 13 -4.52 13.4 -3.5 13.86 -2.48 13.99 -1.17 28.15 -1.75 4.06 -0.58 3.23 -1.9 -0.16 -4.38 -0.73 -4.37 -1.45 -7 -2.34 -6.85 -3.63 -6.27 -5.12 -5.1 -11.22 -5.98 -12.11 -3.79 -11.52 -2.63 20.13 -35.15 89.53 -0.87zm18.22 647.13l-31.48 0.29 -31.52 1.02 -11.22 2.48 -5.25 2.19 -4.65 3.21 -5.97 4.96 -5.41 5.54 -4.09 6.42 -2.9 7.15 -2.64 10.21 -1.15 10.65 -0.59 21.29 -0.13 65.78 4.09 5.25 2.61 2.04 2.94 1.31 2.9 -0.44 2.34 -1.02 1.29 -3.06 2.64 -1.89 10.79 -8.17 5.38 -3.94 6.14 -2.92 8.45 -2.77 8.61 -1.9 17.66 -1.89 5.25 0.58 4.79 2.04 2.48 0.15 2.34 -0.73 4.95 -1.31 13.27 -0.73 13.3 -1.02 10.49 -1.89 10.07 -3.5 9.17 -5.25 7.59 -7.44 11.22 -17.5 2.77 -7.44 1.75 -7.73 1.02 -16.04 -0.59 -8.32 -1.62 -8.31 -2.61 -8.02 -3.93 -7.29 -4.69 -5.25 -5.38 -4.38 -12.11 -7.29 -8.88 -3.35 -9.34 -1.31 -20.13 -0.44zm58.91 171.37l-2.34 3.64 -3.33 2.92 -7.59 4.09 -11.81 3.65 -10.49 4.96 -11.22 2.77 -13.73 2.04 -7 0.44 -7 -0.44 -4.06 -0.73 -4.09 0.44 -6.44 0.58 -6.7 0.15 -17.49 1.02 -17.19 3.21 -8.32 3.65 -7.16 5.4 -7.29 7.44 -5.97 8.46 -4.65 9.34 -3.07 10.06 -1.32 11.23 0.46 11.38 2.01 10.94 3.96 10.65 3.93 5.98 4.95 5.25 5.97 4.08 6.27 3.36 10.07 3.35 10.49 2.19 10.49 1.02 10.53 0.15 63.99 -0.44 14.29 -6.56 6.57 -4.23 5.97 -4.81 6.44 -8.46 4.36 -9.63 2.64 -10.21 1.02 -10.5 0.86 -38.65 -0.43 -38.65 -1.32 -6.13 -1.75 -2.63 -2.18 -1.89 -1.32 0.15zm-61.38 -258.74l125.97 2.33 11.09 4.67 10.96 5.54 10.2 6.56 9.34 7.73 8.45 10.94 7 11.96 5.84 12.83 3.79 13.56 2.9 18.23 1.32 18.23 1.02 36.61 -0.59 141.03 -1.16 117.56 -9.5 28.15 -6.27 13.27 -8.58 12.1 -9.77 10.36 -5.71 4.23 -6.1 3.64 -10.66 5.11 -11.09 4.08 -10.76 0.87 -10.96 0.15 -154.55 0.29 -91.58 -0.88 -15.91 -2.62 -15.31 -4.81 -10.2 -4.37 -9.04 -6.27 -6.83 -6.71 -6.01 -7.29 -10.03 -16.05 -4.39 -9.48 -3.07 -9.77 -4.06 -20.27 -2.34 -29.61 -0.73 -29.75 0 -75.7 0.86 -75.55 2.05 -104.57 2.9 -17.36 6.14 -16.19 6.14 -12.54 3.76 -5.69 4.69 -5.25 10.92 -10.79 5.97 -4.81 6.44 -4.09 15.31 -7.73 15.45 -0.44 141.45 -1.46 5.25 0z"/>
 </g>
</svg>
