<?xml version="1.0" encoding="UTF-8"?>
<!DOCTYPE svg PUBLIC "-//W3C//DTD SVG 1.1//EN" "http://www.w3.org/Graphics/SVG/1.1/DTD/svg11.dtd">
<!-- Creator: CorelDRAW 2020 (64-Bit) -->
<svg xmlns="http://www.w3.org/2000/svg" xml:space="preserve" width="3.92927in" height="11.19in" version="1.1" style="shape-rendering:geometricPrecision; text-rendering:geometricPrecision; image-rendering:optimizeQuality; fill-rule:evenodd; clip-rule:evenodd"
viewBox="0 0 1041.41 2965.81"
 xmlns:xlink="http://www.w3.org/1999/xlink"
 xmlns:xodm="http://www.corel.com/coreldraw/odm/2003">
 <defs>
  <style type="text/css">
   <![CDATA[
    .str0 {stroke:#282829;stroke-width:3.71;stroke-miterlimit:2.61313}
    .fil0 {fill:none}
    .fil1 {fill:#ED3237}
   ]]>
  </style>
 </defs>
 <g id="Layer_x0020_1">
  <metadata id="CorelCorpID_0Corel-Layer"/>
  <path class="fil0 str0" d="M769.18 2016.7l44 71.56 2.65 3.71 4.24 0.26 37.64 -2.65 24.12 0.8 23.06 6.63 22.53 11.66 20.67 14.05 13.52 14.57 9.54 17.49 9.01 25.71 4.24 27.04 -1.06 18.28 -3.98 18.29 -6.36 17.22 -8.74 16.17 -10.34 12.72 -12.72 10.07 -16.43 10.07 -18.02 6.89 -20.94 9.01 -1.33 6.36 1.33 6.62 11.13 35.78 13.25 34.99 26.24 56.19 15.9 37.1 13.52 38.17 7.69 30.21 2.65 31.01 -1.58 34.45 -6.9 33.4 -11.39 29.42 -14.05 27.83 -17.49 22.26 -19.61 20.14 -15.9 13.52 -17.76 11.13 -15.9 8.48 -15.37 9.81 -7.95 11.14 -6.09 12.19 -54.6 113.97 -6.1 13.52 -482.9 0 -58.57 -124.04 -7.69 -14.84 -9.54 -13.25 -15.9 -9.54 -21.74 -13.52 -20.14 -15.37 -23.59 -21.73 -20.14 -24.38 -18.82 -38.44 -11.13 -41.08 -3.18 -42.41 1.33 -21.47 3.45 -20.94 6.09 -24.38 8.48 -23.32 35.52 -79.51 13.52 -29.95 10.87 -30.75 12.99 -46.38 -6.63 -5.03 -8.48 -3.71 -12.73 -4.24 -12.46 -5.04 -16.16 -9.81 -15.11 -11.93 -13.25 -18.55 -9.01 -21.21 -5.57 -23.59 -0.79 -23.86 3.71 -23.85 8.75 -22.26 16.17 -23.59 20.67 -19.87 23.59 -12.46 25.71 -8.48 20.94 -2.12 21.21 1.06 24.65 2.12 6.63 -6.63 5.3 -7.95 45.58 -72.89 476.01 0 6.1 11.93zm-344.29 -1005.57l285.18 2.65 17.22 0.53 40.82 139.68 -4.24 6.09 -6.1 4.51 -33.66 30.21 -2.65 4.77 -1.06 5.57 0.53 11.39 6.63 32.33 9.54 31.55 55.13 177.04 53.54 174.93 25.97 79.77 10.87 17.49 14.84 13.78 14.31 7.42 15.11 6.1 49.3 19.08 0 3.18 -1.58 3.44 -10.87 28.36 -8.74 29.16 -39.75 127.75 -291.81 0 -32.6 -40.28 -34.19 -38.7 -34.99 -40.28 -36.04 -39.49 65.46 -51.42 -68.91 0 -68.91 1.33 -15.9 1.86 36.84 19.87 3.71 4.24 -0.26 5.57 -30.48 104.96 -21.21 72.36 -225.28 0 -86.4 -104.96 -44.79 -54.07 -2.91 -3.98 -1.06 -4.24 37.37 -27.04 29.42 -23.06 28.62 -24.65 11.93 -15.64 9.81 -17.49 13.25 -31.27 11.39 -32.07 113.7 -336.6 11.93 -35.25 4.24 -20.94 0.53 -21.21 -3.98 -10.87 -6.63 -9.28 -16.7 -15.64 -10.34 -8.75 -9.28 -10.07 2.39 -10.33 33.93 -111.32 8.74 -28.1 129.08 0zm96.73 -902.73l72.63 -106.55 338.46 0 105.75 193.22 -102.31 11.39 -23.59 6.63 -22.53 10.33 -21.21 13.52 -19.61 16.43 -127.75 108.93 144.71 322.82 25.97 47.17 15.9 20.67 18.81 17.23 15.64 7.95 16.43 4.77 33.4 7.15 45.05 10.34 -98.86 166.71 -363.63 0 -63.08 -93.83 -51.15 93.83 -359.66 0 -93.83 -155.05 81.37 -34.72 9.54 -6.36 7.68 -9.01 4.77 -10.87 0.79 -12.73 0 -530.34 -1.06 -12.98 -2.12 -5.84 -4.77 -3.18 -30.74 -8.22 -31.27 -6.36 -38.43 -8.22 98.33 -161.41 358.07 0 62.28 106.55zm-80.04 483.97l0.53 169.62 0.8 10.07 2.12 3.71 4.5 1.59 29.42 4.77 29.68 2.65 54.86 -5.03 -19.35 -42.14 -20.67 -41.35 -60.16 -121.39 -21.73 17.49zm23.06 -410.29l-10.34 4.5 -7.68 8.75 -4.51 11.66 -0.53 12.73 0.26 33.66 92.24 -77.92 -69.44 6.63zm-90.65 2187.12l-18.55 49.3 -15.37 49.3 -13.78 50.09 -2.65 11.93 -0.8 11.66 3.45 8.21 5.03 7.16 8.49 3.71 9.27 1.33 8.75 -2.91 7.68 -5.3 9.54 -13.25 6.89 -15.11 0.53 -12.46 -0.27 -65.99 -2.12 -66 -1.86 -22.79 -4.24 11.13zm296.05 -5.83l-1.32 42.67 -3.45 70.5 0.79 29.15 5.3 28.62 3.71 8.74 5.83 7.16 16.17 9.28 9.81 0.26 9.54 -1.86 6.36 -6.89 3.98 -8.74 1.59 -3.71 -0.26 -4.24 -16.43 -63.08 -11.4 -36.58 -12.99 -36.31 -15.11 -36.05 -2.12 1.06zm-192.95 -924.73l-4.77 10.6 -3.18 11.14 -14.31 45.05 -15.38 44.53 18.56 1.33 60.43 -0.53 -18.29 -53.53 -20.67 -57.25 -2.39 -1.33z"/>
  <path class="fil1" d="M306.15 2074.21l-23.32 38.17 -13.78 22 43.46 1.33 40.82 2.65 28.36 5.56 19.61 9.81 14.32 14.84 7.95 13.25 3.98 23.85 1.33 53.01 0.26 100.45 -1.85 159.56 -3.45 30.21 -6.09 18.55 -7.69 13.25 -9.81 10.34 -13.25 7.95 -17.76 6.63 -22.53 5.04 -18.02 -1.85 -15.37 -6.1 -12.46 -7.95 -10.08 -10.87 -8.74 -14.31 -3.98 -11.66 0.27 -19.08 7.95 -51.41 16.43 -62.29 10.87 -35.78 6.1 -25.18 2.38 -23.06 0.8 -29.42 0 -42.14 -7.42 -22.26 -12.99 -32.6 -16.97 -25.18 -12.45 -13.25 -15.11 -12.19 -16.96 -10.08 -16.43 -6.88 -30.21 -3.45 -31.01 2.65 -17.76 7.68 -13.52 12.73 -9.01 17.49 -4.24 21.2 0 13.25 2.12 11.66 4.24 10.6 6.36 9.81 9.01 7.95 16.17 6.63 27.04 10.6 17.76 12.72 7.95 9.54 5.3 10.6 2.65 12.46 -0.26 14.58 -4.24 24.11 -9.81 31.28 -14.05 36.31 -17.76 38.69 -19.08 41.88 -14.58 37.1 -11.39 34.45 0 29.95 1.06 28.62 6.09 22.53 10.34 24.12 13.52 22.26 15.37 18.55 15.9 13.52 35.78 19.35 32.86 12.73 18.55 3.18 20.41 1.06 21.47 -1.06 21.47 -3.45 19.61 -5.83 21.47 -9.01 20.67 -10.6 16.43 -10.87 7.69 -5.3 4.24 0 2.12 23.59 -1.06 19.62 -4.24 12.46 -9.54 14.57 -12.99 12.73 -15.64 9.54 -17.22 6.36 -18.29 3.45 -16.7 0.53 -18.55 -2.38 -23.59 -5.56 -19.35 -3.71 19.88 44.52 20.94 43.47 417.18 0 10.34 -20.67 21.46 -44.26 11.13 -23.86 -8.22 1.33 -22.53 6.1 -26.5 4.77 -27.56 -1.33 -25.97 -7.42 -22.26 -12.46 -10.87 -13.25 -8.75 -18.29 -5.03 -20.14 -0.26 -18.82 3.18 -11.66 2.91 0.53 4.5 4.24 34.72 19.87 24.12 10.08 22.79 7.15 22.26 3.98 23.32 1.06 21.73 -1.33 22 -6.1 36.57 -14.84 28.62 -16.7 23.86 -25.18 20.41 -31.54 12.19 -39.23 4.24 -24.12 -1.06 -21.2 -8.48 -39.76 -16.97 -43.47 -26.5 -56.99 -20.15 -46.65 -12.98 -41.35 -6.63 -28.62 -0.8 -20.67 5.04 -15.9 11.39 -13.78 14.05 -10.6 19.88 -7.95 18.55 -7.42 13.52 -8.48 9.54 -10.6 6.36 -13.52 2.65 -19.88 -3.98 -20.67 -9.27 -18.81 -14.05 -13.79 -10.87 -6.09 -11.39 -3.98 -29.69 -2.65 -17.22 1.06 -14.32 3.18 -14.31 6.36 -15.64 10.07 -13.78 11.39 -13.78 14.84 -12.46 15.9 -8.48 14.32 -11.93 40.02 -5.83 29.15 0 31.54 1.59 25.71 3.44 23.59 15.37 54.87 14.58 49.82 8.48 42.14 2.12 33.13 -1.33 12.19 -3.18 9.28 -8.49 14.05 -10.07 10.6 -12.46 7.42 -15.63 5.3 -11.4 1.33 -12.19 -0.79 -25.71 -7.42 -22.53 -13.52 -8.75 -8.22 -6.09 -9.01 -7.42 -20.94 -4.77 -31.27 -2.39 -163 0.53 -102.31 1.59 -52.75 9.54 -26.5 7.16 -11.39 7.15 -7.95 16.17 -10.08 19.88 -6.09 27.56 -3.18 38.69 -1.06 33.4 0 -6.36 -11.66 -33.4 -55.13 -7.68 -10.6 -416.91 0 -9.28 16.17zm176.25 -807.05l-41.88 121.39 -70.77 210.98 -0.26 1.58 1.33 0.53 3.98 0 210.71 1.85 -13.52 -47.44 -49.3 -161.67 -38.43 -124.83 -0.53 -1.86 -1.33 -0.53zm68.64 -200.64l130.93 0.8 3.98 0.26 2.12 2.39 18.55 65.99 -19.08 19.61 -15.11 22.53 -3.71 16.7 -0.27 17.22 0.53 19.35 3.71 19.08 28.1 90.91 23.85 77.39 12.19 42.41 42.94 137.82 34.19 107.08 7.95 21.46 9.81 20.67 12.72 19.08 16.7 15.64 23.86 14.31 25.18 12.19 -17.49 53.01 -18.29 52.21 -226.61 0 -17.22 -22.26 -18.82 -20.94 -43.47 -49.82 -2.39 -4.24 1.85 -4.24 25.71 -21.21 10.87 -12.72 8.49 -14.32 4.24 -13.25 -0.53 -13.52 -8.22 -32.6 -268.75 -1.06 -7.42 19.08 -2.39 9.81 0 10.34 3.71 16.7 6.89 15.9 12.72 17.49 17.23 12.98 5.04 4.5 1.05 2.92 -1.05 3.18 -13.52 45.58 -15.64 51.68 -161.14 0 -26.5 -33.93 -27.83 -32.86 -26.5 -30.74 -1.59 -4.77 2.65 -3.97 21.2 -16.17 20.14 -17.49 9.81 -8.48 18.29 -24.66 16.44 -25.97 13.25 -31.28 11.13 -32.07 41.08 -122.45 21.21 -59.89 63.61 -187.65 7.69 -34.72 0.8 -35.52 -1.59 -15.63 -5.56 -14.84 -12.73 -19.61 -16.17 -16.7 -2.12 -2.39 0.26 -2.91 10.87 -37.1 12.72 -36.31 215.48 0zm-426.71 -995.23l-20.94 36.31 -11.93 19.88 13.79 2.39 17.49 5.04 14.32 8.22 11.93 12.46 10.07 16.7 6.36 13.25 0 580.44 -5.3 9.81 -12.46 19.08 -15.9 17.49 -17.49 14.05 -16.96 8.74 -10.34 5.04 9.01 16.97 18.82 36.04 9.54 20.67 298.17 0 6.63 -11.66 18.55 -38.7 11.93 -27.04 -18.02 -4.77 -15.11 -5.04 -12.98 -6.89 -10.34 -8.22 -7.16 -9.54 -5.3 -9.27 -0.8 -112.12 0.27 -87.46 1.85 -26.5 67.85 -55.92 16.96 -12.73 28.89 54.6 39.49 82.96 19.87 41.09 30.75 63.34 12.46 27.83 5.83 18.02 0.27 12.99 -4.77 12.46 -6.09 9.01 -8.22 7.42 -11.13 5.83 -14.58 4.77 -18.29 5.3 17.23 35.52 18.02 34.72 69.97 0 160.09 -1.59 90.11 -1.33 8.48 -16.96 18.28 -33.4 9.81 -16.7 -13.52 -4.5 -16.16 -6.63 -15.64 -9.01 -14.05 -11.39 -12.99 -12.99 -26.5 -35.52 -17.76 -31.54 -16.7 -35.52 -14.84 -33.93 -9.01 -20.94 -53.54 -117.41 -29.42 -64.4 -25.97 -57.78 -14.84 -34.46 -7.95 -17.76 5.3 -4.5 88.25 -76.33 95.69 -79.78 37.63 -19.62 24.38 -10.6 23.06 -3.98 23.59 -3.18 -24.12 -48.77 -25.18 -47.97 -289.95 0 -13.25 21.47 -18.82 33.13 -7.69 17.49 9.81 5.3 12.46 9.54 6.89 12.19 1.06 13.78 -5.3 14.84 -19.35 20.15 -25.97 22 -76.6 64.14 -52.21 44.26 -33.39 28.89 -0.53 -84.81 0 -74.47 1.32 -12.73 2.65 -6.89 9.28 -15.11 11.39 -11.13 15.38 -8.74 21.73 -7.95 19.35 -5.83 -11.39 -21.47 -21.21 -39.75 -9.81 -18.29 -295.26 0 -9.27 15.9z"/>
 </g>
</svg>
