<?xml version="1.0" encoding="UTF-8"?>
<!DOCTYPE svg PUBLIC "-//W3C//DTD SVG 1.1//EN" "http://www.w3.org/Graphics/SVG/1.1/DTD/svg11.dtd">
<!-- Creator: CorelDRAW 2020 (64-Bit) -->
<svg xmlns="http://www.w3.org/2000/svg" xml:space="preserve" width="3.84387in" height="11.5in" version="1.1" style="shape-rendering:geometricPrecision; text-rendering:geometricPrecision; image-rendering:optimizeQuality; fill-rule:evenodd; clip-rule:evenodd"
viewBox="0 0 2201.04 6585.04"
 xmlns:xlink="http://www.w3.org/1999/xlink"
 xmlns:xodm="http://www.corel.com/coreldraw/odm/2003">
 <defs>
  <style type="text/css">
   <![CDATA[
    .fil1 {fill:#A47E3C}
    .fil0 {fill:#3E4095}
   ]]>
  </style>
 </defs>
 <g id="Layer_x0020_1">
  <metadata id="CorelCorpID_0Corel-Layer"/>
  <path class="fil0" d="M1641.45 2255.92l48.28 78.48 48.83 79.02 5.48 8.21 9.87 1.1 82.3 -6.58 53.21 2.19 51.57 14.82 49.38 25.24 45.53 31.28 30.17 32.38 20.85 37.86 20.3 57.07 9.32 59.82 -2.73 40.61 -8.23 40.05 -14.27 38.42 -19.76 35.67 -22.49 27.99 -28.52 21.95 -36.21 22.51 -39.51 15.35 -46.07 19.76 -3.3 13.72 3.3 14.82 24.14 79.02 29.62 77.37 57.6 123.47 35.11 82.31 29.62 83.96 17.56 66.95 6.04 68.6 -3.83 75.72 -15.37 74.09 -24.68 64.74 -31.82 61.47 -37.86 48.83 -43.88 44.45 -34.57 30.18 -38.95 24.15 -35.66 19.2 -34.01 21.41 -17.56 24.7 -13.16 26.88 -120.71 251.88 -13.71 29.63 -1065.42 0 -129.46 -273.83 -17.01 -32.38 -20.85 -29.63 -35.11 -20.86 -47.73 -29.62 -44.97 -34.03 -51.58 -47.75 -44.97 -54.33 -22.51 -41.15 -18.66 -43.35 -14.81 -45 -9.87 -46.1 -6.04 -46.65 -1.09 -47.19 3.29 -47.19 7.67 -46.1 13.18 -53.77 18.66 -51.59 79 -175.59 29.07 -65.86 24.14 -68.04 28.53 -102.62 -14.27 -10.99 -18.66 -8.23 -27.97 -9.33 -27.43 -10.97 -36.21 -21.95 -33.47 -25.8 -29.07 -41.7 -19.75 -46.64 -12.07 -51.59 -2.19 -53.23 8.23 -52.13 19.75 -49.39 35.11 -52.14 46.09 -43.35 52.11 -27.97 56.52 -18.66 46.07 -4.39 46.63 2.19 54.32 4.39 14.82 -14.27 12.06 -17.56 100.4 -160.79 1050.58 0 13.72 26.34zm-534.35 -2255.92l99.3 4.39 99.3 13.17 97.1 21.41 94.36 29.63 89.97 38.42 85.03 46.09 79.01 55.43 70.77 63.1 44.99 48.85 39.49 52.13 34.57 55.43 28.53 57.07 24.14 59.81 18.1 60.91 13.17 62.01 7.14 63.11 2.73 77.38 -3.83 77.37 -9.33 76.83 -13.71 76.28 193.11 80.11 -305.03 1007.52 -1590.98 0 -305.03 -1007.52 193.11 -80.11 -19.75 -119.63 -7.14 -120.17 2.2 -60.37 6.58 -59.81 10.97 -59.82 16.45 -58.72 39.51 -97.67 54.31 -91.66 68.02 -83.96 80.64 -74.62 70.23 -50.49 75.16 -43.35 80.1 -36.76 83.39 -30.19 86.13 -23.05 88.33 -15.91 89.42 -9.87 89.43 -2.75zm-471.26 6515.89l-125.63 -234.85 -12.62 -25.25 -2.75 -14.27 8.79 -6.58 22.49 -3.85 23.04 -6.04 -49.92 -19.75 -90.52 -36.77 -88.88 -48.29 -41.7 -32.38 -46.63 -45.54 -45.53 -53.78 -38.95 -54.87 -50.48 -87.8 -32.91 -87.81 -18.11 -60.91 -9.87 -50.49 -3.85 -55.97 0.56 -76.28 6.58 -117.43 6.04 -36.76 7.68 -28 21.94 -58.16 25.78 -62.01 29.09 -55.42 35.66 -54.87 45.53 -59.28 60.9 -58.72 80.65 -56.52 88.31 -47.19 85.04 -30.73 34.57 -8.79 -34.57 -8.77 -35.11 -10.97 31.28 -59.27 128.93 -239.8 19.19 -36.23 863.53 0 58.15 109.76 88.33 169.01 31.26 59.27 -31.81 8.24 -31.28 8.23 41.15 13.18 103.68 43.9 93.82 49.39 41.69 34.01 47.73 48.29 46.09 53.78 38.39 52.14 40.05 74.63 33.47 85.61 20.85 65.85 10.43 45.54 3.84 48.29 0 74.63 -2.19 108.1 -11.52 64.76 -25.79 82.86 -21.95 53.24 -20.3 42.8 -32.37 53.23 -38.95 54.33 -39.51 47.75 -61.44 60.91 -55.96 37.87 -91.62 43.35 -86.68 36.21 -23.05 9.87 18.66 6.58 29.07 6.58 -9.87 29.09 -40.05 79.57 -89.97 171.77 -34.01 66.95 -860.22 0 -35.67 -69.15zm133.31 -3482.38l-40.59 108.66 -34.57 109.74 -30.16 110.3 -5.49 25.8 -2.19 26.34 7.13 18.1 11.52 15.37 19.2 8.24 20.3 3.28 19.2 -6.58 17 -11.52 12.08 -13.72 8.78 -15.91 15.35 -32.92 1.1 -27.99 -1.1 -145.97 -4.38 -145.42 -3.85 -49.92 -9.33 24.14zm653.41 -12.62l-2.75 47.19 -0.55 47.2 -7.14 155.29 1.65 64.76 11.52 63.11 8.23 19.2 13.17 15.37 35.13 20.85 21.94 0.56 20.85 -4.41 13.72 -14.81 9.32 -19.2 3.85 -8.23 -0.54 -9.33 -36.76 -139.39 -25.24 -80.67 -28.53 -80.12 -33.45 -79.57 -4.39 2.2zm-319.85 -2455.67l-59.25 3.29 -58.15 11.53 -53.77 21.95 -24.12 14.82 -21.41 18.66 -33.47 43.88 -22.48 48.85 -13.72 52.14 -7.68 52.67 -2.19 90.01 6.58 89.44 14.27 88.89 19.2 87.81 46.07 158.03 57.61 154.76 67.48 151.45 75.16 148.7 8.78 13.72 76.8 -156.94 69.14 -159.68 59.25 -162.44 47.73 -166.28 17.54 -81.21 13.17 -82.31 7.14 -82.86 0 -83.42 -4.93 -49.93 -10.43 -49.93 -17.56 -47.75 -26.33 -44.44 -34.01 -32.92 -41.15 -23.61 -46.63 -15.9 -48.82 -8.24 -59.81 -2.75z"/>
  <path class="fil1" d="M1887.24 653.02l11.52 76.82 2.19 93.83 -10.42 109.76 -24.69 125.67 -41.7 141.03 -62 155.29 -84.48 170.12 -108.63 183.28 68.02 -47.2 59.25 -55.43 52.12 -62.55 46.63 -68.59 84.49 -149.81 83.39 -158.04 75.16 30.73 -239.21 794.05 -641.33 0 75.72 -142.68 69.12 -142.68 60.9 -141.03 52.66 -138.29 42.79 -133.89 33.47 -129.5 22.49 -122.36 10.97 -115.25 -1.65 -105.89 -14.27 -96.04 -12.62 -43.91 -15.91 -40.61 -19.2 -37.86 -23.04 -34.57 -27.43 -30.73 -30.72 -27.44 -35.11 -23.04 -38.95 -19.76 -43.35 -15.37 -47.17 -11.52 -52.13 -6.59 -56.5 -2.75 -56.51 2.2 -52.11 7.14 -48.29 10.96 -43.88 14.82 -40.05 19.22 -36.21 23.05 -31.81 26.89 -28.53 30.72 -24.68 33.48 -20.85 37.31 -17.01 40.06 -13.72 43.35 -17 94.93 -4.39 104.81 8.79 114.69 20.85 121.82 32.37 128.96 42.78 134.98 53.21 139.39 63.1 142.12 71.87 144.88 80.64 145.97 -644.07 0 -239.2 -794.05 75.15 -30.73 83.39 158.04 84.49 149.81 46.63 68.59 52.11 62.55 59.25 55.43 68.03 47.2 -108.63 -183.28 -84.49 -170.12 -61.98 -155.29 -41.69 -141.03 -24.68 -125.67 -10.43 -109.76 2.19 -93.83 12.07 -76.82 17.56 -62.55 24.14 -58.72 29.62 -54.87 35.11 -51.04 39.51 -46.65 44.43 -42.25 48.28 -38.96 51.58 -34.02 54.86 -30.73 58.15 -26.34 59.79 -22.51 62.55 -18.1 63.63 -14.27 64.74 -9.87 132.21 -8.24 132.22 8.24 64.73 9.87 63.63 14.27 62.54 18.1 60.35 22.51 57.61 26.34 54.86 30.73 51.57 34.02 48.28 38.96 44.44 42.25 39.51 46.65 35.11 51.04 29.62 54.87 24.14 58.72 18.11 62.55zm-1267.85 1729.11l-51.57 84.51 -30.72 48.85 96 3.29 89.99 5.49 62.54 12.62 43.34 20.85 31.81 33.48 17.56 28.53 8.79 52.68 2.73 117.43 0.56 221.7 -3.83 351.75 -7.14 67.49 -13.71 40.61 -17.01 29.09 -21.95 22.51 -29.07 18.1 -38.95 14.82 -49.93 10.97 -39.49 -4.39 -34.57 -13.17 -27.42 -17.57 -21.95 -24.14 -19.2 -31.29 -8.79 -25.79 0.56 -42.79 17.54 -113.05 36.21 -137.74 24.14 -78.47 13.18 -55.97 5.48 -51.04 1.65 -64.74 0 -92.74 -16.46 -49.39 -28.53 -71.89 -37.32 -55.97 -27.43 -29.09 -34.01 -26.89 -36.74 -21.95 -36.77 -15.37 -29.62 -5.49 -36.76 -2.19 -37.3 1.1 -31.28 4.94 -38.95 17.01 -30.18 27.99 -19.75 38.42 -9.33 46.65 0 29.63 4.94 25.78 8.79 23.05 14.25 21.95 20.3 17.56 35.11 14.27 59.8 23.61 38.96 28.53 18.1 20.3 11.52 23.59 5.49 27.44 0 32.38 -9.87 53.23 -21.41 69.14 -31.26 80.12 -38.96 85.61 -42.24 92.19 -31.82 82.31 -25.78 75.72 0 65.86 2.75 63.11 13.71 49.92 22.49 53.24 29.63 48.83 34.01 41.71 35.66 29.63 78.45 42.81 72.96 27.97 40.61 7.14 44.99 2.2 47.73 -2.75 47.17 -7.14 43.34 -13.16 47.73 -19.76 45.53 -23.59 36.21 -23.59 17 -11.53 8.78 -0.54 4.94 52.12 -2.19 43.35 -9.33 27.44 -20.85 32.92 -29.07 27.44 -34.57 21.41 -38.4 13.72 -39.49 7.67 -37.32 1.65 -40.59 -5.48 -52.13 -12.08 -42.78 -8.79 43.88 98.24 46.09 96.02 920.58 0 23.04 -44.99 47.19 -98.24 24.68 -52.68 -18.1 3.3 -49.92 13.16 -58.71 10.43 -60.35 -3.3 -57.59 -15.91 -48.83 -27.99 -24.14 -28.53 -19.2 -40.61 -10.97 -45 -0.55 -41.15 7.13 -25.8 6.04 1.09 10.42 9.34 76.26 43.9 53.21 22.49 49.92 15.37 49.38 8.79 51.57 2.75 47.73 -2.75 48.28 -13.72 81.2 -32.92 63.09 -36.77 24.68 -22.49 27.99 -32.92 44.99 -69.69 26.89 -86.71 9.87 -53.23 -2.75 -46.65 -18.65 -87.79 -37.31 -96.04 -58.69 -125.67 -44.44 -103.16 -28.53 -91.1 -14.27 -63.1 -2.19 -46.1 10.97 -34.57 25.23 -30.73 31.28 -23.59 43.9 -17.01 41.14 -16.47 29.62 -18.66 20.86 -23.59 14.25 -30.18 5.49 -43.35 -8.77 -45.54 -20.85 -41.71 -30.73 -30.19 -24.14 -13.72 -24.68 -8.77 -65.83 -6.04 -37.86 2.19 -31.82 7.14 -31.27 13.72 -34.57 22.49 -30.18 25.25 -30.72 32.92 -26.87 34.57 -19.21 32.38 -26.33 87.79 -12.62 64.76 0 69.69 3.29 56.52 7.68 52.14 33.47 121.26 32.37 109.76 18.66 93.29 4.94 72.43 -3.29 27.44 -6.58 20.3 -19.2 31.28 -21.95 23.05 -27.43 16.45 -34.55 12.08 -25.25 2.75 -26.87 -1.65 -56.5 -17.01 -49.93 -29.63 -19.19 -18.1 -13.72 -19.76 -15.91 -46.1 -10.97 -69.15 -3.83 -129.5 -1.1 -230.48 1.1 -226.08 3.83 -115.78 8.23 -29.63 12.62 -29.09 15.37 -25.24 16.45 -17.57 35.66 -21.95 43.89 -13.72 60.35 -7.13 85.58 -2.2 74.07 0 -14.27 -25.24 -74.06 -122.38 -16.45 -23.04 -920.58 0 -20.3 35.11zm500.34 2216.96l343.98 3.29 72.41 138.29 -53.76 12.62 -50.48 20.3 -28.52 19.22 -24.14 24.68 -18.66 29.64 -10.97 32.92 -3.29 19.2 3.29 18.66 18.66 9.33 21.94 3.29 96.01 7.14 96.01 9.33 71.87 19.2 70.23 25.8 49.92 22.49 46.09 30.19 48.82 42.25 43.89 47.75 38.42 52.13 32.91 55.97 31.82 68.04 22.49 71.9 10.42 53.23 4.94 54.33 -2.19 98.78 -13.71 97.67 -9.34 33.48 -13.71 32.38 -15.91 40.61 -18.64 39.51 -48.29 73.53 -57.05 66.95 -53.77 43.35 -59.25 35.13 -86.12 38.4 -91.07 24.7 -95.45 13.18 -96.57 3.83 -34.01 3.3 -7.14 17 -0.54 19.22 3.83 29.63 9.33 29.07 15.37 25.8 21.39 20.3 31.28 17.01 32.91 12.07 68.58 17.56 0.54 3.85 -3.28 4.94 -70.78 136.08 -721.98 -7.13 -71.86 -137.2 68.02 -18.64 32.91 -12.08 30.72 -17.01 19.76 -21.95 14.27 -26.34 13.71 -36.77 4.94 -38.96 -4.38 -9.87 -9.89 -4.39 -53.76 -6.04 -53.77 -3.29 -114.65 -14.27 -56.51 -13.18 -54.31 -18.66 -52.67 -23.05 -51.02 -26.33 -55.4 -41.72 -48.83 -49.38 -42.24 -55.43 -36.21 -59.25 -34.01 -73.54 -20.85 -78.47 -17 -139.93 3.29 -63.11 9.32 -62.01 13.18 -54.33 18.1 -52.14 48.82 -99.86 52.67 -73.54 63.65 -64.75 52.67 -35.13 55.95 -29.63 95.47 -36.77 49.38 -12.62 50.47 -8.23 91.07 -7.68 90.53 -5.48 6.58 -3.3 3.28 -6.04 2.2 -14.81 -1.65 -27.44 -7.68 -26.33 -28.52 -47.75 -27.99 -24.7 -32.37 -16.47 -71.87 -19.2 -15.35 -3.85 72.4 -137.19 380.74 -3.29zm-264.98 639.84l-32.93 3.3 -32.92 7.68 -61.44 25.79 -39.49 27.99 -33.47 35.13 -26.89 40.05 -20.85 43.91 -14.27 47.73 -3.29 49.93 5.48 57.63 13.18 55.97 23.59 52.13 33.45 47.2 41.15 34.01 47.19 26.34 49.37 20.86 52.67 11.52 37.3 2.75 -12.06 -589.92 -25.78 0zm469.62 114.69l-6.04 460.96 27.43 -1.1 26.87 -4.94 58.71 -20.86 54.86 -29.63 37.32 -33.48 31.26 -39.51 15.37 -27.99 11.52 -30.72 14.27 -63.11 3.83 -39.5 -2.19 -40.06 -7.13 -39.52 -13.18 -37.3 -20.85 -43.37 -27.97 -38.4 -36.76 -34.03 -41.69 -26.89 -48.83 -14.82 -50.47 -9.87 -23.04 0 -3.29 114.13z"/>
 </g>
</svg>
