<?xml version="1.0" encoding="UTF-8"?>
<!DOCTYPE svg PUBLIC "-//W3C//DTD SVG 1.1//EN" "http://www.w3.org/Graphics/SVG/1.1/DTD/svg11.dtd">
<!-- Creator: CorelDRAW 2020 (64-Bit) -->
<svg xmlns="http://www.w3.org/2000/svg" xml:space="preserve" width="13in" height="19in" version="1.1" style="shape-rendering:geometricPrecision; text-rendering:geometricPrecision; image-rendering:optimizeQuality; fill-rule:evenodd; clip-rule:evenodd"
viewBox="0 0 13000 19000"
 xmlns:xlink="http://www.w3.org/1999/xlink"
 xmlns:xodm="http://www.corel.com/coreldraw/odm/2003">
 <defs>
  <style type="text/css">
   <![CDATA[
    .fil1 {fill:#FEFEFE}
    .fil0 {fill:#3E4095}
   ]]>
  </style>
 </defs>
 <g id="Layer_x0020_1">
  <metadata id="CorelCorpID_0Corel-Layer"/>
  <path class="fil0" d="M8407.43 7100.12l-227 -424.02 -22.99 -46 -5.02 -25 17.02 -11.99 40 -6.99 40.98 -11 -89.99 -36 -163.01 -66 -160 -87 -76.01 -58 -83.99 -83 -83 -97 -69.98 -99 -91.01 -159 -60.01 -159 -32.99 -109.02 -18.01 -91.98 -6 -101.01 1.02 -137.01 11.99 -212 25 -116.98 38.98 -106.01 46 -112.01 52.99 -99.99 64.02 -98.99 83 -107.01 109.99 -107 145.02 -102 159.98 -84.99 154 -55.01 62.99 -16 -62.99 -16 -63 -20 56 -107 232 -433 35 -66 1561 0 104.99 199 160 305 56 107 -57 15 -57 16 74.02 22.99 187.99 79.02 170 89.99 73.99 61 86.01 87 84.99 97 68 94 72 136.01 62.02 154 37 118.98 18.98 82 6.02 87 1 135.02 -4 194.98 -20 117.01 -47 150 -40 97 -36 77 -58.99 96.01 -70.01 98 -72 85.98 -112 111.01 -99.99 68 -165 78 -158.01 65.01 -40.98 19.01 33.98 11 52 11.99 -16.99 52 -73 144 -162.02 310 -62 122.01 -1553.99 0 -65.01 -125.99zm664 247l1191 2.98 134 38.99 130.99 49.01 121.01 68.99 104.99 88.02 97 96.98 52 59.02 41 67 66 142.01 54.01 147.98 17.99 84.99 10 86.01 1.99 87 -5 86.01 -23.98 165.99 -45.01 162.02 -68.99 151.99 -44.01 71 -52 66 -65.01 77 97 128 87 134 69.01 144 47 150.99 25 156.99 0 159 -16 144 -32.02 142.01 -42.99 108 -109 212 -80.01 109 -96.01 94 -171 134 -92 57 -98 46 -177.99 52.99 -184.01 31 -161.99 8.01 -162.02 2.01 -1373.98 1 -423 0 -464.02 -432 -60.98 -55.01 0 -417 133.98 -68 63.02 -42 53.99 -52 31 -52.99 11 -60.01 6.02 -495 -1.02 -691 -2.99 -105.01 -6.02 -51 -12.99 -51 -20 -56 -27.99 -53 -37 -47 -44.01 -40 -72 -43.99 -74.99 -37.99 0 -436.01 175 -178.01 171 -181.99 166.99 -169.01 1189.01 2.02zm-1815.02 7763l123 -253.99 339 -683.98 360 -730.01 145 -292.01 -55.01 -114 -263 -536 -207.99 -427 -104.99 -217.99 -133 -279.02 -80.01 -164 -52 -104 1803 -6 1804.02 0 48.99 206 78 315 61 252 55.01 225.01 28.99 128 -3.98 22 -15 14 -78.02 64.99 -136.99 115.02 -206 172.98 -181 152.01 -59.02 46 -23.98 -50.01 -69.01 -161.99 -84.99 -196 -41 -85.01 -45 -5 -483.01 -3.01 -439 2.02 167.01 324 167.99 324 -176.99 356 -171 360 474 6.99 469 2.01 52 -72 137.98 -206 111.01 -161.02 26 -28.98 109.99 96.98 191 164 159 139 126.01 113 47 41 -27.99 98 -55.01 198.02 -122.01 426.01 -62 220.98 -41 146.01 -12.99 40.98 -1060.01 6.02 -1824 5 -769.02 -6.02zm1658.01 -4963l821.02 6 57 -21 53.99 -29.01 52 -36 40.01 -47 19.01 -43.99 6.99 -47 -5 -48.02 -16.99 -43.99 -27 -38.01 -39.01 -24.98 -47.99 -20 -53.02 -8.01 -460.99 -11 -400.01 -2.01 0 414.01zm0 -1357.02l844 0 84.99 -42 39.01 -26 34.01 -31.99 27 -36 16 -42 6 -43.99 -6 -44.01 -25 -58 -20 -25 -25.98 -18.01 -50.01 -21.99 -54.01 -11 -208.99 -9.01 -208.01 -5 -453 -4 0 418z"/>
  <path class="fil1" d="M9046.43 7556.11l1045.01 6 84.99 1.99 84.02 11.02 124 35.01 119 51 87 63.99 79.99 74.99 45 51 35 58.02 58 122.98 52 127.01 19 123 0 124.99 -19 166.02 -19.01 81.98 -24.98 81.01 -46 85.01 -56 78.99 -57.99 73.99 -63.02 70.01 -156.99 102.01 99 65.98 91.01 78.02 86.01 98 70.98 109 56 118 42 123 16.99 78 6.02 79.99 -1 133 -18.01 131.01 -24.01 86.98 -31.99 84.02 -84 159 -111.01 141.99 -132.98 121.01 -67.02 44.98 -70.98 38.01 -152.01 57 -104 27.99 -107 13.01 -238 7.99 -237 2.02 -1552 5 -210 -202.02 -182.99 -171 0.99 -181 83 -53.99 73.99 -66.01 65.01 -81 47.99 -94 30 -93 -5 -1433 -39.01 -96.01 -48 -90.01 -72 -99 -42 -43.98 -47.99 -38.02 -47 -27.99 0.99 -211 392 -412 1073 0zm-87 1975l-111.01 1.02 -110.99 6 -16 5 -5 14.98 -15 683.01 -1 117.01 1118 16 66.01 -21 61 -31 96.98 -72 77 -93 54.01 -108 16.99 -58 9.01 -60.01 -3.01 -75.01 -20 -73 -44.98 -94.99 -32 -42 -40 -35.01 -52 -37.99 -60.01 -23.02 -116.01 -11.99 -115.99 -3.01 -670 -4 -86.01 0zm-268.99 -1164l-16 626.01 1102 16 37 -5 35 -12.99 68 -33.01 83 -48 37 -31.99 30 -37.02 46 -79.99 36 -83 22.99 -98 1.02 -101.01 -10 -55.01 -21.02 -52 -29.98 -47 -36 -42 -54.01 -47 -63 -32.99 -51 -19 -52.99 -8.01 -344.01 -7.99 -815 -6 -5 204.98zm592 -4729.01l620.99 6 130.02 250.01 -96.01 21.99 -91.01 37.02 -52 34.98 -43.98 45.01 -33.02 52.99 -19.98 59.01 -6.02 35.01 6.02 32.99 33.99 18.01 39.01 5.97 173.98 13.01 173.01 16 130 36 127.01 46 89.99 41 83 54.01 89.02 75.98 78.99 87 68.99 94.02 60.01 100.99 57 123 41 129.99 19.01 96.01 7.99 98 -2.99 177.99 -25 177.02 -16.99 60.01 -25 58 -29.01 73.99 -32.99 71 -87 133 -103 120.99 -97 78.99 -108 63.02 -155.99 68.99 -164 45 -173.01 24.01 -174 6.99 -60.98 5 -13.01 31 -1 35 6.99 53.99 17.02 52 26.99 46 39.98 38.01 55.01 31 60.01 21 124 31 1 6.99 -6 10 -127.01 246.01 -1305 -13.01 -129.99 -248.99 123 -32.99 58.99 -22.02 56 -30 35 -39.98 26 -48.02 25 -67 8.98 -69.99 -7.99 -18.01 -17.99 -6.99 -97.02 -11 -97.98 -6 -207 -26.02 -101.01 -23.98 -99.02 -34.01 -94.99 -41 -92 -47.99 -99.99 -75.01 -88.99 -88.99 -76.01 -99.99 -65.01 -107 -61 -134 -38.99 -140.99 -30 -253.02 6 -114 17.02 -111.98 22.99 -98 32.99 -94.02 88.99 -180 95.01 -134 114 -115.99 96.01 -64.01 100.98 -52.99 172.02 -67 89.99 -23.01 91.01 -14.98 164 -14.01 163.98 -10 12.01 -5 6 -11 4 -26 -3.01 -50.01 -13.98 -47.99 -52.02 -86.01 -49.98 -43.99 -59.01 -31 -130 -34.01 -26.99 -6.99 129.99 -248.02 689.01 -6zm-479 1156.02l-60.01 5 -58.99 13.98 -111.01 47.02 -72 51 -60.01 62.99 -48.99 73 -37.99 78.99 -26 86.01 -5.02 89.99 9.03 104.02 24.98 100.99 42 95.01 60.01 84.99 74.99 62 85.01 47 89.99 38.01 95.01 20 67 5 -22 -1065.01 -46 0zm848.98 207l-11.99 831.99 50 -1 48 -8.98 107 -38.02 99 -52.99 67 -61 56 -71 29.01 -51 20 -54.98 26 -114.02 6.99 -72 -4 -72 -12.99 -70.98 -24.01 -68.02 -37 -77.97 -51 -70.01 -66 -61 -76 -47.99 -88 -27.02 -90.98 -17.99 -42 0 -5.02 206zm-522.99 9923.04l-156.99 -8.01 -612 -3.01 -769.02 -3.98 438.02 -875 438 -870.01 -215.01 -432 -267 -542 -320 -655.02 791.01 -2.99 624 -3.01 166.99 -9.01 4 -6 1 7.02 158.01 7.99 615.99 3.01 772.01 0 56 212 97 401.01 36 145.99 21.99 81 -14.01 25 -63.99 53 -127.01 106.01 -104.99 87 -60.01 45.98 -135.99 -300.99 -25 -57 -925.01 -11.99 -243.99 2.99 -86.01 7.01 -2.98 6 -2.02 -6 -23.98 -9 -84.02 -1.99 -108 0 168.01 315.99 31 50.01 10 6 4 -6 -2.01 12.99 7.02 34.01 28.98 58.99 203.01 394.01 -140.99 284 -138.01 285.99 -8.01 13.01 -89 168.98 -80.01 170.02 713.02 7.99 709.98 5 187.02 -280.99 62 -91.01 207 181.99 140.99 119 8.01 10 0.99 18.01 -28.98 96.01 -50.01 171.99 -72 246 -57 195 -18.01 69.99 -18.98 57.99 -1372.02 3.01 -222 2.98 -52 5.02 -4.01 6.99 -0.99 -6.99z"/>
 </g>
</svg>
