<?xml version="1.0" encoding="UTF-8"?>
<!DOCTYPE svg PUBLIC "-//W3C//DTD SVG 1.1//EN" "http://www.w3.org/Graphics/SVG/1.1/DTD/svg11.dtd">
<!-- Creator: CorelDRAW 2020 (64-Bit) -->
<svg xmlns="http://www.w3.org/2000/svg" xml:space="preserve" width="4.17207in" height="12.192in" version="1.1" style="shape-rendering:geometricPrecision; text-rendering:geometricPrecision; image-rendering:optimizeQuality; fill-rule:evenodd; clip-rule:evenodd"
viewBox="0 0 970.74 2836.79"
 xmlns:xlink="http://www.w3.org/1999/xlink"
 xmlns:xodm="http://www.corel.com/coreldraw/odm/2003">
 <defs>
  <style type="text/css">
   <![CDATA[
    .fil1 {fill:#E5D831}
    .fil0 {fill:#3E4095}
   ]]>
  </style>
 </defs>
 <g id="Layer_x0020_1">
  <metadata id="CorelCorpID_0Corel-Layer"/>
  <path class="fil0" d="M4.88 925.36l29.81 -61.66 82.32 -166.13 87.76 -177.53 35.36 -70.97 -13.51 -27.69 -64 -130.3 -50.49 -103.78 -25.33 -52.82 -32.62 -67.94 -19.5 -39.79 -12.61 -25.36 438.41 -1.4 438.35 0 12.11 50.03 18.83 76.55 14.68 61.19 13.45 54.68 7.01 31.18 -0.95 5.36 -3.7 3.26 -18.83 15.82 -33.29 28.15 -50.04 41.88 -44.22 37 -14.18 11.4 -5.83 -12.56 -16.76 -39.09 -20.9 -47.7 -9.81 -20.71 -10.93 -1.4 -117.52 -0.46 -106.53 0.46 40.74 78.88 40.69 78.65 -42.82 86.55 -41.86 87.49 115.16 1.63 113.99 0.7 12.61 -17.92 33.74 -49.79 26.96 -39.32 6.28 -6.98 26.79 23.5 46.51 40.02 38.61 33.74 30.49 27.45 11.43 10 -6.78 23.97 -13.23 47.93 -29.81 103.54 -15.13 53.75 -9.75 35.6 -3.25 9.77 -257.56 1.4 -443.28 1.4 -187.06 -1.63zm105.64 937.91l-63.05 -103.54 -22.36 -37.23 -10.93 -20.24 23.03 -9.08 45.84 -17.92 6.28 -5.35 4.2 -7.91 6.5 -12.8 0 -418.35 -9.97 -19.31 -14.18 -22.1 -31.44 -33.04 -35.59 -35.83 9.08 -13.49 19.28 -27.45 47.97 -67.71 27.18 -37.46 16.76 -22.57 202.2 -1.17 338.1 -0.46 136.35 0.7 14.4 28.38 72.41 140.77 57.44 113.08 -20.9 13.97 -32.62 22.57 -35.36 24.66 -39.28 27.68 -24.94 16.76 -8.8 4.42 -10.48 -14.42 -22.81 -27.93 -12.33 -15.58 -2.8 -4.89 -6.72 -7.21 -16.53 -12.56 -10.26 -5.12 -135.39 0 -103.79 0.7 -40.74 1.63 -8.57 3.73 -5.83 7.44 -5.1 9.08 -0.73 172.17 -0.45 172.19 5.1 10.23 5.83 9.77 8.13 9.31 35.14 29.55 31.66 26.06 -17.93 36.76 -41.41 83.76 -23.26 47.7 -290.4 0 -7.9 -12.33zm261.1 41.42l242.21 1.63 29.09 3.03 28.58 6.05 57.5 15.59 55.59 20.47 39.12 20.24 17.88 12.33 17.26 13.73 22.3 20.7 20.73 22.34 18.38 24.43 15.13 26.29 13 30.01 8.85 31.42 5.83 28.85 3.92 29.09 1.18 29.54 -2.07 29.32 -7.9 39.09 -6.56 18.85 -8.57 17.92 -13.28 22.57 -15.35 21.17 -35.36 38.62 -36.76 30.25 -39.57 26.52 -37.21 18.38 -38.89 14.43 -29.98 8.84 -30.93 5.12 -63.33 3.96 -63.72 1.4 -127.04 0 0.45 67.01 2.8 17.69 3.92 7.91 6.05 6.28 19.33 10.7 20.96 7.91 64.45 22.33 -37.27 42.82 -35.59 43.74 -59.07 73.53 -266.42 0 -40.01 -49.09 -40.74 -48.4 -50.49 -62.82 32.34 -13.03 33.29 -11.17 19.78 -6.98 18.83 -9.07 5.83 -5.35 3.7 -6.98 2.58 -15.36 1.18 -125.41 -0.95 -336.45 -9.75 -19.08 -13.06 -16.75 -48.59 -41.65 -23.99 -18.15 50.49 -61.43 56.77 -70.26 13.51 -15.83 229.66 1.17zm35.59 241.75l0.22 158.69 144.75 -0.24 37.21 -3.03 18.16 -3.95 17.65 -6.28 14.18 -8.61 11.88 -11.86 8.85 -14.2 4.88 -15.82 1.63 -16.29 -1.4 -16.29 -4.88 -15.59 -8.35 -14.2 -12.1 -12.33 -14.23 -9.08 -16.03 -6.28 -16.98 -2.79 -46.79 -1.86 -138.65 0z"/>
  <path class="fil1" d="M138.42 1816.5l-39.28 -66.31 -9.08 -16.29 22.58 -11.86 15.58 -13.03 10.93 -15.36 7.23 -19.08 5.55 -19.55 1.18 -415.56 -11.88 -32.57 -12.78 -25.59 -14.68 -21.64 -17.65 -19.78 -21.18 -21.87 74.2 -101.92 6.56 -10.23 261.26 -0.47 41.19 -0.93 8.41 -1.4 -0.5 -1.4 2.35 1.63 14.18 2.79 154.95 1.16 144.53 1.17 61.42 118.67 41.19 78.64 9.02 16.29 -52.12 33.74 -26.51 17.92 -7.68 4.65 -35.36 -40.48 -11.88 -9.54 -13 -7.44 -19.56 -10 -183.14 -0.7 -24.66 1.17 -4.65 2.09 -0.9 2.79 -0.5 -2.79 -1.12 -2.33 -5.83 -0.93 -39.34 0 -40.69 1.63 -20.01 3.96 -17.26 8.37 -13.73 12.34 -10.2 16.05 -6.05 19.08 -2.35 186.14 1.18 165.67 3.25 26.06 6.28 14.65 7.23 10.7 11.15 12.56 28.64 25.59 16.03 12.1 -46.51 94.7 -3.98 10.01 -233.35 0 -8.63 -13.26zm342.3 137.74l133.55 1.17 28.86 3.03 28.36 5.12 28.41 6.52 27.91 8.61 38.89 14.2 31.16 15.58 28.64 19.78 24.43 20.71 22.53 22.8 16.31 23.5 14.63 24.66 5.16 14.2 6.5 21.64 5.6 21.64 5.1 37.92 0.22 38.16 -6.28 33.28 -11.38 31.88 -14.23 22.1 -16.98 20.24 -31.16 31.88 -34.19 28.62 -18.66 11.4 -19.5 10.47 -28.19 13.27 -29.53 10 -28.64 7.45 -29.08 4.42 -46.96 3.49 -47.02 1.4 -94.26 0.24 -106.76 -0.7 1.18 144.03 14.18 24.9 8.35 11.4 10.03 10.47 11.88 9.07 13.67 5.82 10.98 3.96 9.97 5.35 -0.67 2.79 -2.13 3.03 -35.59 43.28 -27.46 35.14 -222.43 0 -18.38 -24.2 -19.78 -23.04 -27.68 -35.13 2.35 -3.96 4.65 -2.1 16.25 -5.82 15.35 -7.91 13.95 -10.24 11.66 -12.8 9.3 -16.05 5.6 -17.69 1.4 -30.25 0.45 -30.25 -0.95 -300.39 -1.18 -109.59 -2.3 -23.27 -3.03 -11.17 -4.88 -10.47 -13.28 -20.71 -16.25 -18.38 -32.39 -27.93 13.28 -18.15 55.59 -67.71 314.84 -0.7zm-118.92 146.12l0 258.04 192 0 24.15 -1.17 24.21 -3.03 23.76 -5.35 22.53 -8.61 20.01 -12.33 16.31 -16.52 12.78 -19.55 8.18 -21.87 3.7 -18.15 1.63 -18.62 -0.45 -18.61 -2.35 -18.38 -8.35 -26.99 -14.68 -24.43 -19.78 -20.24 -11.82 -7.91 -12.83 -6.05 -13.96 -4.42 -14.4 -2.56 -29.31 -2.33 -102.83 -0.93 -118.47 0zm98.18 -1220.15l-37.88 -2.1 -148.96 -0.46 -186.84 -1.17 106.59 -212.44 106.31 -211.5 -52.34 -104.94 -64.9 -131.93 -77.73 -158.92 192.22 -0.93 151.93 -0.7 40.46 -2.1 0.95 -1.63 0.45 1.63 38.16 2.1 149.63 0.7 187.74 0 13.51 51.65 23.76 97.49 8.57 35.37 5.38 19.55 -3.25 6.28 -15.64 12.8 -30.93 25.59 -25.33 21.4 -14.68 11.17 -33.06 -73.29 -6 -13.96 -225.01 -2.79 -59.12 0.69 -20.96 1.63 -0.9 1.63 -0.22 -1.63 -6.05 -2.09 -20.51 -0.47 -26.06 0 40.97 76.78 7.45 12.1 2.3 1.63 0.95 -1.4 -0.22 3.02 1.63 8.38 6.95 14.2 49.37 95.86 -34.24 68.87 -33.74 69.57 -1.85 3.26 -21.63 40.95 -19.33 41.41 173.11 1.86 172.66 1.4 45.62 -68.41 14.91 -22.1 50.49 44.2 34.19 28.85 1.85 2.56 0.22 4.19 -6.95 23.5 -12.1 41.65 -17.48 59.8 -13.95 47.47 -4.43 16.99 -4.43 14.2 -333.61 0.46 -54.02 0.94 -12.55 1.16 -0.9 1.63 -0.5 -1.63z"/>
 </g>
</svg>
