<?xml version="1.0" encoding="UTF-8"?>
<!DOCTYPE svg PUBLIC "-//W3C//DTD SVG 1.1//EN" "http://www.w3.org/Graphics/SVG/1.1/DTD/svg11.dtd">
<!-- Creator: CorelDRAW 2020 (64-Bit) -->
<svg xmlns="http://www.w3.org/2000/svg" xml:space="preserve" width="13in" height="19in" version="1.1" style="shape-rendering:geometricPrecision; text-rendering:geometricPrecision; image-rendering:optimizeQuality; fill-rule:evenodd; clip-rule:evenodd"
viewBox="0 0 13000 19000"
 xmlns:xlink="http://www.w3.org/1999/xlink"
 xmlns:xodm="http://www.corel.com/coreldraw/odm/2003">
 <defs>
  <style type="text/css">
   <![CDATA[
    .fil1 {fill:#FEFEFE}
    .fil0 {fill:#3E4095}
   ]]>
  </style>
 </defs>
 <g id="Layer_x0020_1">
  <metadata id="CorelCorpID_0Corel-Layer"/>
  <path class="fil0" d="M10724.07 7187.91l190.01 -285.99 71.99 -108 140.01 -210.99 195 -290.01 221.99 -335 109.01 -167.01 97.98 -147.98 87 -129 121 -179.99 126.02 -189.02 102.99 -156.99 103.02 -152 122.98 -183.99 90 -139.02 61.01 -91.98 36.99 -58 -344.01 -5.01 -344.97 2.99 -60.02 29.02 -46 25.99 -39.98 36.01 -87.02 129.99 -83.99 146 -42 71.99 -42 -39.98 -108.99 -93.02 -148.99 -127.99 -226.02 -200.01 -145 -123.99 34.01 -61.01 270.99 -480 63.01 -118 60 -106 75 -134.01 55.01 -89.98 1885.09 -2.02 1873.84 2.02 -38.05 60 -109.83 156.99 -88.15 129 -67.92 102 -256.99 375.01 -87.91 125.99 -59.01 80.01 -79.96 114.98 -105.01 152 -108.15 157.01 -125.96 184.98 -130.06 189.02 -311.91 453.98 -316 460.01 -45.04 62 -4.09 17.99 15.17 10.02 106.94 6.98 241.09 -4.99 327.8 -8.02 52.99 -6.98 27.22 -12 44.8 -40 57.08 -70.02 145 -225.99 26.97 -44.01 24.09 -12.98 33 18.98 59.01 53.01 392.83 341 122.11 106 72.02 67.01 -26.01 46 -208.1 351.98 -292.88 489.01 -56.12 94.99 -3715.9 0 10 -19zm1375.01 3990.02l-238.01 -444.02 -24.01 -47.98 -4.98 -26.01 17 -13.01 42 -6.98 43.98 -12.02 -94.99 -37 -170 -69.99 -168.02 -90 -79.99 -60.98 -88.01 -87.02 -85.98 -100.99 -73 -104 -96 -166 -62 -167.01 -35 -114 -19 -96 -7.01 -106 2.02 -143.98 11.99 -222.02 10.98 -69.99 15 -53.01 41 -109.98 49.01 -117.01 54.99 -105.01 67 -104 87 -112 115.01 -111.01 152 -106.98 166.98 -89 162.02 -58 64.98 -17 -65.99 -15.99 -66 -21 58.99 -112 243 -453 37.02 -69 1633.93 0 109.11 206.99 167.87 320 59.01 112 -59.97 16.02 -59.01 15.99 77.07 25 197.02 81.99 177.03 94 79 64.02 89.84 91 88.15 101.98 72.02 98.03 74.91 141.98 65.03 162 39.02 124.02 19.02 85.98 6.99 90.99 0.96 142.01 -5.06 204 -20.96 121.99 -48.89 157.02 -41.19 100.99 -39.02 81 -60.93 100 -73.94 104 -74.91 89.98 -116.09 115.01 -105.98 72.01 -172.93 81.99 -164.02 68.02 -43.11 18.98 34.92 12.02 55.16 12.98 -19.03 54 -76.11 151.02 -168.84 324.98 -65.99 127 -1626.08 0 -68 -131.99zm646 246.01l1247.02 2.99 139.94 40.99 138.01 50 125.97 73 110.07 92.01 101.88 100.99 54.19 62 42.87 69.99 69.12 150.03 55.88 153.98 19.03 89.02 11.08 89.98 1.93 91.02 -5.06 89.98 -26.01 173.99 -46.96 169.01 -72.02 160 -46 73.99 -54.91 69.01 -66.96 80.01 100.92 135 92.01 139.98 71.05 151.02 49.86 158 26.01 164 0 167.01 -16.86 150.99 -33.96 148 -44.08 113.01 -115.13 222 -82.85 114 -100.92 98.99 -179.2 140.01 -95.86 60 -103.09 48 -92.01 31 -94.89 23.99 -191.96 33 -169.08 8 -170.04 2.02 -1438 0.98 -442.98 0 -486.02 -451.98 -64 -58.02 0 -435.99 141 -71 65.01 -43.98 57.01 -55.01 31.99 -55.01 11.99 -62.98 7.01 -518.99 -2 -722.01 -3.01 -110 -6 -54 -12.98 -54 -22.01 -58 -29 -55.01 -38.01 -48.99 -46.99 -42 -75 -47.02 -79 -39.98 0 -455 183 -187 179 -191 175 -177 1245 3.01zm-164 2929.99l858.98 6.98 59.97 -21.99 56.12 -31 53.95 -37.02 41.91 -48.99 20.95 -46 6.98 -49.98 -5.78 -49.02 -17.1 -46.99 -27.94 -39.02 -40.94 -27 -51.06 -21 -53.95 -8 -484.12 -11.99 -417.98 -2 0 433.01zm0 -1420l884.03 0 87.91 -44 40.94 -27 36.13 -33 27.94 -38.01 17.1 -44 6.02 -46 -6.02 -45.98 -26.01 -61.01 -20.96 -25.99 -27.22 -19 -52.99 -23 -56.84 -11.01 -217.97 -11.01 -217.98 -4 -474.09 -4.99 0 438z"/>
  <path class="fil1" d="M13014 7553.91l651.03 6.02 136.08 260.99 -99.95 23.99 -96.1 39.02 -53.95 35.98 -46 47.02 -34.93 56 -21.19 62 -6.02 35.98 6.02 35.02 36.13 19 40.94 6 182.09 12.98 180.88 18.02 136.08 37 131.99 48 94.9 42.99 88.15 56 92.01 80.01 82.85 91 72.98 98.99 62.14 105.01 59.97 129 42.87 135.99 20.23 101.01 7.94 102 -4.09 186.97 -26.01 185.03 -16.86 62.98 -26.01 61.01 -30.11 77 -34.93 73.99 -91.04 140.01 -107.9 125.99 -102.12 82.01 -112.96 67 -163.06 71.99 -171.97 46.99 -179.92 25 -183.05 7.01 -64.07 6 -13.97 33 -0.96 36.01 6.98 56 18.06 55.01 28.91 48 40.94 39.98 58.04 32.01 63.11 21.99 128.85 33 0.96 7.01 -4.81 10 -134.16 258 -1365.93 -13.99 -136.01 -260 129 -35 62 -23 58.02 -31 37.98 -42 27.02 -50 25.99 -70.02 9.01 -73.99 -8 -17.99 -19 -8 -102 -11.01 -102 -7.01 -217.01 -27 -106 -25 -102.99 -35 -100 -44 -96 -50 -104.99 -79 -93.02 -92.99 -79.99 -104 -68.02 -112.98 -64 -139 -40 -148 -31.98 -265.01 6 -119 17.99 -116.98 25 -103.01 34.01 -98.99 93 -188.01 100 -139.98 119.01 -121.99 100 -67 106 -55.01 179.99 -71 94 -22.98 96 -16.02 170.98 -13.99 172.02 -11.01 11.99 -6 6.98 -11.01 4 -27.99 -2.99 -52 -15 -50 -54 -90.01 -52 -46 -62 -31.98 -135.99 -36.01 -29.02 -7.01 137.02 -259.98 719.91 -6.02zm-500.93 1210l-62.98 6 -61.01 13.99 -117 49.02 -75 53.01 -62.98 65.99 -51.01 75.99 -38.99 83 -27.99 91 -5.01 94 10 109.01 25 106 44 98.99 62.98 89 79 65 89.02 48.99 94.01 40 98.99 21 71 5.01 -24.01 -1115.01 -48 0zm888.94 217.01l-12.04 871 52.03 -1.01 51.06 -10 111.04 -40 104.05 -54.99 69.85 -64.02 59.01 -74.98 30.11 -53.01 20.95 -56.98 26.98 -120.02 6.98 -75 -3.85 -75 -13.97 -75 -24.09 -70.98 -39.02 -82.01 -53.95 -73 -69.13 -63.99 -79 -50 -92 -28.01 -94.9 -18.98 -45.04 0 -5.06 216zm-2250.95 -2035l110.02 -162 222 -335 131.99 -196.99 125 -194.01 237 -356 148 -220.98 231 -345 111.01 -168.02 118.98 -180.98 94.99 -137 79 -120.02 80.01 -127 69.99 -102 68.04 -95 34.92 -60 -557.96 -6 -351.98 0 -191 7.01 -98.03 16.98 -75.99 33.02 -56.98 32.97 -49.02 39.02 -44 48.99 -42 62.02 -44 65.99 -10.98 2.99 -13 -6.98 -254.99 -233 -54 -51.01 58 -106 121.99 -218.98 127 -230.02 79 -139 15 -21 1604.09 0 1604.81 3.01 -52.99 75.99 -73.94 109.01 -80.93 119.99 -79 117.01 -69.13 100.99 -144.03 203.02 -241.82 352.97 -209.06 302.03 -86.95 131.99 -117.06 166 -110.07 158 -73.94 110 -84.06 121 -197.02 295 -63.83 87 -80.2 116 -103.88 152 -65.99 93 -13.01 21 581.01 6.02 554.93 -6.02 96.1 -13.01 62.86 -27 55.15 -39 67.92 -63.99 63.11 -69 39.98 -58 23.85 -48 67.2 62 130.78 113.01 109.11 92.99 34.93 38.01 2.17 11.01 -6.02 11.99 -72.98 125 -243.02 414.99 -79 131 -11.08 25 -3189.01 0 31 -38.99zm1568.01 4696.99l1094.08 5.01 88.88 2.98 88.15 12 129.82 36.01 124.04 53.01 92 67.99 83.09 77.99 46.97 53.01 36.85 60.98 61.18 129 52.99 133.02 13.97 62.98 6.98 65.01 0 131 -19.99 173.99 -19.99 86.01 -26.01 83.98 -47.93 90.01 -59.01 82.01 -59.97 77.99 -65.99 73 -164.98 106.98 103.81 69.01 94.17 81 90.8 103.02 74.18 114 59.01 123.99 42.87 129 19.03 81 6.02 84.01 -0.96 139 -6.02 69 -13 69 -25.05 89.98 -33 89 -88.87 166 -54.19 77 -60.94 72.02 -66.96 66 -72.02 61.01 -71.05 46.99 -74.91 39 -158 60.02 -109.11 28.98 -112 14.02 -249.04 8 -248.8 2.99 -1625.09 4 -219.01 -212 -191 -177.99 0 -190.01 87 -56 77 -68.98 69 -85 27.99 -47.02 21 -50.99 33.02 -97.02 -6.02 -1500.98 -39.98 -100 -51.01 -95.02 -75 -102.99 -44.99 -46 -50 -40 -48 -29 0 -220.98 410 -431.01 1124 0zm-92.01 2067.01l-115.99 0.99 -115.01 6 -17.99 5.01 -4.99 17.01 -15 713.98 -1.01 123.01 1170.91 15.99 68.16 -21.99 63.83 -32.01 101.16 -75.99 81.89 -97.02 56.12 -112.98 16.86 -61.01 10.11 -62 1.93 -40 -5.06 -39 -20.95 -77 -46.97 -98.99 -33.96 -43.02 -40.94 -37 -55.15 -40 -61.9 -23.99 -122.11 -13 -121.87 -2.99 -701.03 -4 -91.02 0zm-280.98 -1219.01l-17 655 1154.1 17 38.78 -5.01 37.09 -13 71.05 -35 86.95 -50.99 38.06 -32.01 32.03 -40 47.93 -83 38.06 -87.98 22.88 -102 2.17 -105.01 -11.08 -58 -21.92 -54 -31.07 -50 -38.06 -44 -57.08 -48.99 -64.79 -35 -54.19 -19 -55.88 -9.01 -360.07 -8 -851.95 -6 -6 214z"/>
 </g>
</svg>
